<svg width="1488" height="1488" viewBox="0 0 1488 1488" fill="none" xmlns="http://www.w3.org/2000/svg">
<g filter="url(#filter0_d_346_1429)">
<circle cx="744" cy="744" r="644" transform="rotate(-180 744 744)" fill="white" fill-opacity="0.5" shape-rendering="crispEdges"/>
<circle cx="744" cy="744" r="643.5" transform="rotate(-180 744 744)" stroke="#E3E3E3" shape-rendering="crispEdges"/>
</g>
<g filter="url(#filter1_d_346_1429)">
<circle cx="744" cy="744" r="470" transform="rotate(-180 744 744)" fill="white" fill-opacity="0.5" shape-rendering="crispEdges"/>
<circle cx="744" cy="744" r="469.5" transform="rotate(-180 744 744)" stroke="#E3E3E3" shape-rendering="crispEdges"/>
</g>
<g filter="url(#filter2_d_346_1429)">
<circle cx="744" cy="744" r="339" transform="rotate(-180 744 744)" fill="white" fill-opacity="0.5" shape-rendering="crispEdges"/>
<circle cx="744" cy="744" r="338.5" transform="rotate(-180 744 744)" stroke="#E3E3E3" shape-rendering="crispEdges"/>
</g>
<circle cx="1075" cy="674" r="10" transform="rotate(-180 1075 674)" fill="#007AD5"/>
<circle cx="511" cy="990" r="10" transform="rotate(-180 511 990)" fill="#F9B233"/>
<circle cx="546" cy="470" r="10" transform="rotate(-180 546 470)" fill="#D9D9D9"/>
<circle cx="936" cy="314" r="10" transform="rotate(-180 936 314)" fill="#D9D9D9"/>
<circle cx="274" cy="734" r="10" transform="rotate(-180 274 734)" fill="#3B4CCA"/>
<circle cx="1097" cy="1052" r="10" transform="rotate(-180 1097 1052)" fill="#8F049A"/>
<circle cx="1271" cy="372" r="10" transform="rotate(-180 1271 372)" fill="#3B9439"/>
<circle cx="1367" cy="904" r="10" transform="rotate(-180 1367 904)" fill="#F77F00"/>
<circle cx="231" cy="1134" r="10" transform="rotate(-180 231 1134)" fill="#1ABC9C"/>
<circle cx="185" cy="423" r="10" transform="rotate(-180 185 423)" fill="#F9B233"/>
<defs>
<filter id="filter0_d_346_1429" x="5.72205e-05" y="0" width="1488" height="1488" filterUnits="userSpaceOnUse" color-interpolation-filters="sRGB">
<feFlood flood-opacity="0" result="BackgroundImageFix"/>
<feColorMatrix in="SourceAlpha" type="matrix" values="0 0 0 0 0 0 0 0 0 0 0 0 0 0 0 0 0 0 127 0" result="hardAlpha"/>
<feOffset/>
<feGaussianBlur stdDeviation="50"/>
<feComposite in2="hardAlpha" operator="out"/>
<feColorMatrix type="matrix" values="0 0 0 0 0 0 0 0 0 0 0 0 0 0 0 0 0 0 0.04 0"/>
<feBlend mode="normal" in2="BackgroundImageFix" result="effect1_dropShadow_346_1429"/>
<feBlend mode="normal" in="SourceGraphic" in2="effect1_dropShadow_346_1429" result="shape"/>
</filter>
<filter id="filter1_d_346_1429" x="174" y="174" width="1140" height="1140" filterUnits="userSpaceOnUse" color-interpolation-filters="sRGB">
<feFlood flood-opacity="0" result="BackgroundImageFix"/>
<feColorMatrix in="SourceAlpha" type="matrix" values="0 0 0 0 0 0 0 0 0 0 0 0 0 0 0 0 0 0 127 0" result="hardAlpha"/>
<feOffset/>
<feGaussianBlur stdDeviation="50"/>
<feComposite in2="hardAlpha" operator="out"/>
<feColorMatrix type="matrix" values="0 0 0 0 0 0 0 0 0 0 0 0 0 0 0 0 0 0 0.04 0"/>
<feBlend mode="normal" in2="BackgroundImageFix" result="effect1_dropShadow_346_1429"/>
<feBlend mode="normal" in="SourceGraphic" in2="effect1_dropShadow_346_1429" result="shape"/>
</filter>
<filter id="filter2_d_346_1429" x="305" y="305" width="878" height="878" filterUnits="userSpaceOnUse" color-interpolation-filters="sRGB">
<feFlood flood-opacity="0" result="BackgroundImageFix"/>
<feColorMatrix in="SourceAlpha" type="matrix" values="0 0 0 0 0 0 0 0 0 0 0 0 0 0 0 0 0 0 127 0" result="hardAlpha"/>
<feOffset/>
<feGaussianBlur stdDeviation="50"/>
<feComposite in2="hardAlpha" operator="out"/>
<feColorMatrix type="matrix" values="0 0 0 0 0 0 0 0 0 0 0 0 0 0 0 0 0 0 0.04 0"/>
<feBlend mode="normal" in2="BackgroundImageFix" result="effect1_dropShadow_346_1429"/>
<feBlend mode="normal" in="SourceGraphic" in2="effect1_dropShadow_346_1429" result="shape"/>
</filter>
</defs>
</svg>
