<svg width="62" height="62" viewBox="0 0 62 62" fill="none" xmlns="http://www.w3.org/2000/svg">
<g clip-path="url(#clip0_275_1308)">
<path d="M37.0169 30.3599L25.2876 27.1963L9.43805 44.2954C8.96469 44.8062 9.13072 45.6306 9.76492 45.9182L13.7916 47.7441C14.1938 47.9264 14.5259 48.2343 14.7381 48.6215L16.8639 52.4983C17.1987 53.1089 18.0334 53.212 18.5068 52.7013L27.2413 43.2781L30.0525 55.8155C30.2048 56.495 30.9781 56.8256 31.5747 56.4662L35.3616 54.1842C35.7398 53.9563 36.1816 53.8573 36.6209 53.9018L41.0196 54.3484C41.7124 54.4187 42.2706 53.7896 42.1182 53.1101L37.0169 30.3599Z" fill="#AD7FDD"/>
<path d="M40.5133 45.9523L37.017 30.3599L25.2877 27.1963L14.4247 38.9157C14.879 39.5045 15.5158 39.9363 16.2408 40.1319C16.5452 40.214 16.8595 40.2535 17.1748 40.2493C17.1485 41.8083 18.1777 43.1945 19.7082 43.6071C20.3026 43.7681 20.9297 43.7644 21.5221 43.5963C21.8226 44.7882 22.7508 45.7419 23.9515 46.0657C24.1525 46.1199 24.3561 46.1543 24.5596 46.1714L27.2413 43.2781L28.1045 47.1274C28.2891 47.2151 28.4824 47.2877 28.6835 47.3419C29.8842 47.6657 31.1659 47.308 32.0249 46.429C32.4525 46.8723 32.9927 47.1909 33.5876 47.3506C35.1176 47.7633 36.7042 47.0828 37.4656 45.722C37.736 45.8843 38.0277 46.0083 38.3322 46.0903C39.0572 46.2859 39.8246 46.2327 40.5133 45.9523Z" fill="#9D66D6"/>
<path d="M37.4632 8.19057L38.73 7.2915C39.3015 6.88589 40.1003 7.21839 40.2153 7.90958L40.4703 9.44194C40.5682 10.0301 41.1777 10.3833 41.7366 10.1758L43.193 9.63528C43.85 9.39141 44.5356 9.91932 44.4677 10.6167L44.3174 12.1629C44.2597 12.7563 44.7571 13.2553 45.3507 13.1996L46.8973 13.0543C47.595 12.9888 48.1206 13.6762 47.8746 14.3323L47.3292 15.7869C47.1199 16.3451 47.4711 16.9559 48.059 17.0557L49.5905 17.3157C50.2813 17.433 50.6111 18.233 50.2037 18.8031L49.3004 20.0669C48.9537 20.552 49.1349 21.2328 49.6769 21.4814L51.0889 22.1289C51.7259 22.421 51.8374 23.2791 51.2962 23.7243L50.0966 24.7113C49.6362 25.0901 49.6351 25.7946 50.0942 26.1749L51.2905 27.1659C51.8302 27.6129 51.7158 28.4706 51.0779 28.7605L49.6637 29.4034C49.121 29.6502 48.9375 30.3304 49.2825 30.8166L50.1816 32.0834C50.5872 32.6548 50.2547 33.4537 49.5635 33.5687L48.0312 33.8237C47.443 33.9215 47.0898 34.531 47.2973 35.09L47.8378 36.5464C48.0817 37.2033 47.5538 37.8889 46.8564 37.8211L45.3102 37.6708C44.7168 37.6131 44.2178 38.1104 44.2736 38.704L44.4188 40.2507C44.4843 40.9484 43.7969 41.474 43.1408 41.228L41.6862 40.6826C41.128 40.4733 40.5172 40.8245 40.4175 41.4123L40.1574 42.9438C40.0401 43.6347 39.2401 43.9645 38.67 43.5571L37.4062 42.6538C36.9211 42.3071 36.2403 42.4883 35.9918 43.0303L35.3442 44.4423C35.0521 45.0793 34.194 45.1908 33.7488 44.6496L32.7618 43.45C32.383 42.9896 31.6785 42.9885 31.2982 43.4476L30.3072 44.6439C29.8603 45.1836 29.0025 45.0692 28.7126 44.4312L28.0697 43.0171C27.8229 42.4743 27.1428 42.2909 26.6565 42.6359L25.3897 43.535C24.8183 43.9406 24.0194 43.6081 23.9044 42.9169L23.6495 41.3846C23.5516 40.7964 22.9421 40.4432 22.3831 40.6506L20.9268 41.1912C20.2698 41.4351 19.5842 40.9072 19.652 40.2098L19.8023 38.6636C19.86 38.0702 19.3627 37.5712 18.7691 37.6269L17.2224 37.7721C16.5248 37.8376 15.9991 37.1503 16.2452 36.4942L16.7905 35.0396C16.9998 34.4814 16.6486 33.8706 16.0608 33.7708L14.5293 33.5108C13.8384 33.3935 13.5086 32.5935 13.9161 32.0234L14.8193 30.7596C15.166 30.2745 14.9848 29.5937 14.4428 29.3451L13.0308 28.6976C12.3938 28.4055 12.2823 27.5474 12.8235 27.1022L14.0231 26.1152C14.4835 25.7364 14.4846 25.0319 14.0255 24.6516L12.8292 23.6606C12.2895 23.2136 12.4039 22.3559 13.0419 22.066L14.456 21.4231C14.9988 21.1763 15.1822 20.4961 14.8372 20.0099L13.9382 18.743C13.5326 18.1716 13.8651 17.3727 14.5563 17.2577L16.0887 17.0028C16.6768 16.9049 17.0301 16.2954 16.8226 15.7364L16.282 14.2801C16.0382 13.6231 16.5661 12.9375 17.2635 13.0053L18.8096 13.1556C19.403 13.2133 19.902 12.716 19.8463 12.1224L19.7011 10.5757C19.6356 9.87807 20.323 9.35241 20.9791 9.59846L22.4336 10.1438C22.9918 10.3531 23.6026 10.0019 23.7024 9.41409L23.9625 7.88258C24.0797 7.19172 24.8797 6.86192 25.4498 7.26937L26.7137 8.17263C27.1987 8.5193 27.8796 8.33811 28.1281 7.79614L28.7757 6.38413C29.0678 5.7471 29.9258 5.63565 30.371 6.17681L31.358 7.3764C31.7368 7.83683 32.4413 7.83791 32.8217 7.37883L33.8126 6.18253C34.2596 5.64281 35.1173 5.75723 35.4073 6.39518L36.05 7.80941C36.2968 8.35216 36.977 8.53562 37.4632 8.19057Z" fill="#F7E365"/>
<path d="M50.1816 32.0833L49.2825 30.8165C48.9375 30.3303 49.1209 29.6501 49.6636 29.4034L51.0778 28.7606C51.7158 28.4706 51.8301 27.6129 51.2905 27.1659L50.0941 26.175C49.635 25.7946 49.6361 25.0901 50.0966 24.7113L51.2962 23.7243C51.8373 23.2791 51.7258 22.421 51.0889 22.129L49.6768 21.4814C49.1349 21.2329 48.9537 20.552 49.3004 20.067L50.2036 18.8031C50.6111 18.233 50.2813 17.433 49.5904 17.3157L48.0589 17.0557C47.4711 16.9559 47.1199 16.3452 47.3292 15.7869L47.8745 14.3324C48.1206 13.6762 47.5949 12.9889 46.8972 13.0544L46.0171 13.137C47.0579 16.4227 47.201 20.0351 46.2368 23.6099C43.5543 33.5551 33.3176 39.4428 23.3723 36.7603C19.7976 35.7961 16.747 33.8558 14.4304 31.304L13.9164 32.0232C13.5089 32.5933 13.8387 33.3934 14.5296 33.5106L16.0611 33.7707C16.6488 33.8704 17.0001 34.4812 16.7908 35.0394L16.2454 36.494C15.9994 37.1501 16.5251 37.8375 17.2227 37.772L18.7694 37.6268C19.363 37.571 19.8603 38.07 19.8026 38.6634L19.6523 40.2096C19.5845 40.9071 20.2701 41.4349 20.9271 41.191L22.3834 40.6505C22.9424 40.443 23.5519 40.7963 23.6497 41.3844L23.9047 42.9167C24.0197 43.608 24.8186 43.9404 25.39 43.5348L26.6568 42.6357C27.143 42.2907 27.8232 42.4742 28.07 43.0169L28.7129 44.4311C29.0028 45.069 29.8606 45.1833 30.3075 44.6437L31.2985 43.4474C31.6788 42.9882 32.3833 42.9894 32.7621 43.4498L33.7491 44.6494C34.1943 45.1906 35.0524 45.0791 35.3445 44.4421L35.992 43.0301C36.2406 42.4881 36.9214 42.3069 37.4065 42.6536L38.6703 43.5569C39.2404 43.9643 40.0404 43.6345 40.1577 42.9437L40.4178 41.4122C40.5175 40.8244 41.1283 40.4731 41.6865 40.6824L43.1411 41.2278C43.7972 41.4738 44.4846 40.9482 44.4191 40.2505L44.2739 38.7039C44.2181 38.1103 44.7171 37.6129 45.3105 37.6706L46.8567 37.8209C47.5542 37.8888 48.082 37.2032 47.8381 36.5462L47.2976 35.0898C47.0901 34.5309 47.4434 33.9214 48.0315 33.8235L49.5638 33.5685C50.2547 33.4537 50.5872 32.6549 50.1816 32.0833Z" fill="#F3D332"/>
<path d="M28.3031 39.3416C35.9955 41.4164 43.9135 36.8625 45.9883 29.17C48.0632 21.4776 43.5092 13.5596 35.8167 11.4848C28.1243 9.40995 20.2063 13.9639 18.1315 21.6564C16.0567 29.3488 20.6106 37.2668 28.3031 39.3416Z" fill="#E69642"/>
<path d="M46.2367 23.6099C43.5543 33.5552 33.3175 39.4428 23.3723 36.7603C23.2559 36.7289 23.1402 36.6964 23.025 36.663C24.5344 37.8766 26.3133 38.805 28.3031 39.3417C35.9956 41.4165 43.9135 36.8625 45.9883 29.1701C46.525 27.1803 46.6171 25.1758 46.3271 23.2609C46.2982 23.3772 46.2681 23.4935 46.2367 23.6099Z" fill="#E38523"/>
<path d="M29.1618 36.1579C35.0959 37.7585 41.204 34.2454 42.8046 28.3113C44.4052 22.3771 40.8921 16.269 34.958 14.6684C29.0238 13.0678 22.9157 16.5809 21.3152 22.5151C19.7146 28.4492 23.2276 34.5573 29.1618 36.1579Z" fill="#F7E365"/>
<path d="M40.3522 17.9903C40.9977 19.9733 41.0946 22.1597 40.511 24.3233C38.9105 30.2574 32.8023 33.7705 26.8682 32.1699C24.7046 31.5863 22.8635 30.4032 21.474 28.8481C22.5989 32.3039 25.3913 35.141 29.1619 36.1581C35.096 37.7586 41.2042 34.2456 42.8047 28.3114C43.8217 24.5408 42.7736 20.7004 40.3522 17.9903Z" fill="#F3D332"/>
<path d="M30.1245 30.469L27.4049 30.8624C26.3572 31.0139 25.5295 29.9884 25.899 28.9964L26.8577 26.4212C26.924 26.2433 26.9532 26.0537 26.9436 25.8641C26.934 25.6746 26.8857 25.4889 26.8018 25.3187L25.5873 22.8538C25.1194 21.9042 25.839 20.8001 26.8966 20.8448L29.6421 20.9609C29.8317 20.9689 30.021 20.9381 30.1984 20.8703C30.3757 20.8026 30.5374 20.6994 30.6734 20.5669L32.6424 18.6501C33.4009 17.9117 34.6733 18.2549 34.9576 19.2745L35.6956 21.9215C35.7466 22.1044 35.8344 22.2749 35.9536 22.4227C36.0728 22.5704 36.221 22.6922 36.3889 22.7807L38.8204 24.061C39.7571 24.5541 39.8239 25.8704 38.9419 26.4558L36.6526 27.9756C36.4945 28.0806 36.3594 28.2168 36.2558 28.3759C36.1521 28.5349 36.0821 28.7134 36.0499 28.9005L35.5836 31.6086C35.404 32.6518 34.1729 33.122 33.3436 32.4642L31.1906 30.7565C31.0419 30.6385 30.8706 30.5522 30.6873 30.5027C30.504 30.4533 30.3125 30.4418 30.1245 30.469Z" fill="#E69642"/>
<path d="M38.8202 24.0608L37.7134 23.478C35.4532 27.6854 30.6695 30.0506 25.8546 29.1394C25.6103 30.0842 26.4074 31.0066 27.4048 30.8624L30.1244 30.4689C30.3123 30.4418 30.5038 30.4532 30.6871 30.5027C30.8704 30.5521 31.0416 30.6385 31.1904 30.7564L33.3433 32.4641C34.1727 33.1219 35.4037 32.6517 35.5833 31.6085L36.0496 28.9003C36.0818 28.7132 36.1519 28.5347 36.2555 28.3757C36.3592 28.2166 36.4942 28.0804 36.6523 27.9755L38.9418 26.4557C39.8237 25.8702 39.7569 24.554 38.8202 24.0608Z" fill="#E38523"/>
</g>
<defs>
<clipPath id="clip0_275_1308">
<rect width="50" height="50" fill="white" transform="translate(13.021) rotate(15.0948)"/>
</clipPath>
</defs>
</svg>
