<svg width="50" height="50" viewBox="0 0 50 50" fill="none" xmlns="http://www.w3.org/2000/svg">
<path d="M0.762221 24.741C2.43781 21.8388 6.24943 21.0116 8.97726 22.9583L9.44298 23.2906L7.09025 19.994C4.88038 16.8973 5.81945 12.5701 9.11408 10.668C12.2772 8.84181 16.2885 10.0148 17.9994 13.1748L17.8884 12.024C17.4834 7.82648 20.7829 4.19318 25 4.19318C29.2171 4.19318 32.5166 7.82658 32.1115 12.024L32.0005 13.1748C33.7114 10.0148 37.7229 8.84181 40.8859 10.668C44.1805 12.5701 45.1196 16.8973 42.9097 19.9941L40.5569 23.2907L41.0227 22.9584C43.7505 21.0117 47.5621 21.8389 49.2377 24.7411C50.9133 27.6434 49.7238 31.3578 46.674 32.7469L29.3203 40.9435L28.9814 44.4556H21.0188L20.6798 40.9435L3.32589 32.7468C0.276186 31.3577 -0.913365 27.6433 0.762221 24.741Z" fill="#A9E8D1"/>
<path d="M3.32598 30.4934L19.2427 38.0113C19.6808 38.2181 20.0576 38.5353 20.3363 38.9316C20.6149 39.3279 20.7859 39.7898 20.8324 40.272L21.0188 42.2022H28.9814L29.1677 40.272C29.2142 39.7898 29.3852 39.3279 29.6639 38.9316C29.9426 38.5353 30.3194 38.2182 30.7574 38.0113L46.6741 30.4934C48.4079 29.7037 49.5394 28.1622 49.8861 26.446C50.3993 28.9598 49.1497 31.6194 46.6741 32.7469L29.3204 40.9435L28.9815 44.4556H21.0189L20.6799 40.9435L3.32598 32.7468C0.850492 31.6193 -0.399117 28.9597 0.113969 26.4459C0.460746 28.1622 1.59229 29.7037 3.32598 30.4934Z" fill="#77D1B3"/>
<path d="M29.5556 38.5061L29.6113 38.6283L42.9098 19.994C45.1191 16.8977 44.1812 12.5705 40.886 10.6679C39.8675 10.0802 38.7615 9.80255 37.6719 9.80255C35.3787 9.80255 33.1612 11.0309 32.0013 13.1718L29.5556 38.5061ZM5.89038 16.258C5.89038 17.5484 6.27739 18.8542 7.09048 19.994L20.389 38.6283L20.4447 38.5061L17.9991 13.1718C16.288 10.0134 12.2764 8.84288 9.1144 10.668C7.03188 11.8707 5.89038 14.0414 5.89038 16.258Z" fill="#77D1B3"/>
<path d="M42.3628 25.7152C41.1222 26.4315 40.6971 28.0178 41.4134 29.2584C42.1297 30.499 43.716 30.9241 44.9567 30.2078C45.9057 29.6599 46.5657 27.5262 46.8235 26.5534C46.8585 26.4221 46.8399 26.2823 46.772 26.1646C46.7041 26.0469 46.5922 25.9609 46.461 25.9255C45.4897 25.6624 43.3118 25.1672 42.3628 25.7152Z" fill="#DAF1A1"/>
<path d="M42.6185 29.9543C43.3871 29.9543 44.0102 29.3312 44.0102 28.5626C44.0102 27.794 43.3871 27.1709 42.6185 27.1709C41.8499 27.1709 41.2268 27.794 41.2268 28.5626C41.2268 29.3312 41.8499 29.9543 42.6185 29.9543Z" fill="#717ED4"/>
<path d="M5.04333 30.2078C6.28396 30.9241 7.87038 30.499 8.58659 29.2584C9.3029 28.0178 8.8778 26.4313 7.63718 25.7151C6.68816 25.1672 4.51032 25.6625 3.53894 25.9256C3.40774 25.961 3.29593 26.047 3.22799 26.1647C3.16005 26.2824 3.14151 26.4222 3.17644 26.5535C3.43425 27.5262 4.09431 29.6599 5.04333 30.2078Z" fill="#DAF1A1"/>
<path d="M7.38145 29.9543C8.15006 29.9543 8.77314 29.3312 8.77314 28.5626C8.77314 27.794 8.15006 27.1709 7.38145 27.1709C6.61283 27.1709 5.98975 27.794 5.98975 28.5626C5.98975 29.3312 6.61283 29.9543 7.38145 29.9543Z" fill="#717ED4"/>
<path d="M34.6799 15.528C33.8668 16.9364 34.3493 18.7373 35.7577 19.5505C37.1661 20.3636 38.967 19.8811 39.7802 18.4727C40.4021 17.3953 39.8399 14.923 39.5413 13.8202C39.5011 13.6713 39.4035 13.5443 39.2699 13.4672C39.1363 13.3901 38.9776 13.369 38.8285 13.4087C37.7241 13.7014 35.302 14.4507 34.6799 15.528Z" fill="#DAF1A1"/>
<path d="M36.5477 19.7621C37.4202 19.7621 38.1275 19.0548 38.1275 18.1822C38.1275 17.3097 37.4202 16.6024 36.5477 16.6024C35.6751 16.6024 34.9678 17.3097 34.9678 18.1822C34.9678 19.0548 35.6751 19.7621 36.5477 19.7621Z" fill="#717ED4"/>
<path d="M10.2199 18.4727C11.033 19.8811 12.8339 20.3636 14.2423 19.5505C15.6507 18.7374 16.1333 16.9364 15.3202 15.528C14.6982 14.4507 12.2759 13.7014 11.1716 13.4087C11.0225 13.369 10.8638 13.3901 10.7302 13.4672C10.5966 13.5443 10.499 13.6713 10.4588 13.8202C10.1601 14.923 9.5979 17.3952 10.2199 18.4727Z" fill="#DAF1A1"/>
<path d="M13.4524 19.7621C14.325 19.7621 15.0323 19.0548 15.0323 18.1822C15.0323 17.3097 14.325 16.6024 13.4524 16.6024C12.5799 16.6024 11.8726 17.3097 11.8726 18.1822C11.8726 19.0548 12.5799 19.7621 13.4524 19.7621Z" fill="#717ED4"/>
<path d="M21.7358 12.2982C21.7358 14.1008 23.1972 15.5622 24.9999 15.5622C26.8026 15.5622 28.264 14.1009 28.264 12.2982C28.264 10.9191 26.354 8.85743 25.4562 7.96436C25.335 7.84369 25.171 7.77594 24.9999 7.77594C24.8289 7.77594 24.6649 7.84369 24.5437 7.96436C23.6459 8.85743 21.7358 10.9191 21.7358 12.2982Z" fill="#DAF1A1"/>
<path d="M25 15.5621C25.9671 15.5621 26.7511 14.7781 26.7511 13.8109C26.7511 12.8438 25.9671 12.0598 25 12.0598C24.0328 12.0598 23.2488 12.8438 23.2488 13.8109C23.2488 14.7781 24.0328 15.5621 25 15.5621Z" fill="#717ED4"/>
<path d="M19.659 21.6693C19.5352 21.6695 19.4132 21.6392 19.3039 21.5811C19.1946 21.5229 19.1013 21.4388 19.0322 21.336C18.3895 20.3809 17.1886 19.8216 16.0438 19.9446C15.6289 19.99 15.2576 19.6893 15.2131 19.275C15.2025 19.1765 15.2114 19.0769 15.2393 18.9818C15.2673 18.8867 15.3136 18.7981 15.3758 18.7209C15.438 18.6438 15.5148 18.5797 15.6017 18.5322C15.6887 18.4847 15.7842 18.4548 15.8827 18.4442C17.5699 18.2635 19.3375 19.0868 20.2842 20.4936C20.3605 20.607 20.4046 20.7391 20.4117 20.8757C20.4188 21.0123 20.3886 21.1483 20.3244 21.2691C20.2602 21.3898 20.1643 21.4909 20.0471 21.5614C19.9299 21.6319 19.7957 21.6692 19.659 21.6693ZM21.4557 21.1482C21.2974 21.1481 21.1431 21.0982 21.0147 21.0056C20.8863 20.913 20.7902 20.7824 20.7401 20.6322C20.398 19.607 19.5986 18.7456 18.6017 18.3278C18.5103 18.2896 18.4274 18.2336 18.3576 18.1633C18.2878 18.0929 18.2326 18.0095 18.195 17.9178C18.1575 17.8261 18.1384 17.7279 18.1388 17.6289C18.1392 17.5298 18.1591 17.4317 18.1974 17.3403C18.2357 17.2489 18.2916 17.1659 18.3619 17.0961C18.4323 17.0264 18.5157 16.9711 18.6074 16.9336C18.6991 16.896 18.7973 16.8769 18.8964 16.8773C18.9955 16.8778 19.0935 16.8977 19.1849 16.936C20.5773 17.5194 21.6937 18.7226 22.1716 20.1545C22.2029 20.2485 22.2155 20.3477 22.2085 20.4466C22.2015 20.5454 22.1751 20.6419 22.1308 20.7306C22.0866 20.8192 22.0253 20.8983 21.9504 20.9632C21.8756 21.0282 21.7887 21.0777 21.6947 21.1091C21.6155 21.1357 21.5349 21.1482 21.4557 21.1482Z" fill="#DF646E"/>
<path d="M22.5777 21.1928C22.506 21.1927 22.4347 21.1825 22.3659 21.1623C22.2708 21.1346 22.1821 21.0883 22.1049 21.0263C22.0276 20.9643 21.9633 20.8876 21.9157 20.8007C21.8681 20.7138 21.838 20.6184 21.8273 20.5199C21.8165 20.4214 21.8253 20.3218 21.8531 20.2267C22.0626 19.5089 21.9337 18.6775 21.5166 18.0569C21.4614 17.9747 21.4229 17.8824 21.4033 17.7852C21.3837 17.6881 21.3835 17.588 21.4026 17.4908C21.4217 17.3936 21.4597 17.3011 21.5145 17.2186C21.5694 17.136 21.64 17.0651 21.7222 17.0099C21.8044 16.9546 21.8968 16.9161 21.9939 16.8965C22.091 16.8769 22.1911 16.8767 22.2883 16.8958C22.3855 16.9149 22.4781 16.9529 22.5606 17.0078C22.6431 17.0626 22.714 17.1332 22.7693 17.2154C23.4393 18.2125 23.6382 19.4964 23.3016 20.6496C23.2558 20.8062 23.1606 20.9438 23.0301 21.0417C22.8996 21.1396 22.7408 21.1926 22.5777 21.1928Z" fill="#DF646E"/>
<path d="M15.6529 24.1472C16.7241 22.6971 18.5233 21.8574 20.1932 22.0282L19.8843 26.3785C18.9381 26.7458 17.0524 27.7168 15.822 28.5629C15.4039 28.8504 14.7679 28.5585 14.6994 28.0475C14.5205 26.7093 14.8295 25.2618 15.6529 24.1472Z" fill="#F0C99D"/>
<path d="M22.7963 26.5259C22.1244 27.1808 21.2067 27.5846 20.1942 27.5846C18.1583 27.5846 16.5033 25.9536 16.4645 23.927C16.4246 21.8357 18.1763 20.1238 20.268 20.1238H21.1274C24.2873 20.1238 26.8489 22.6855 26.8489 25.8453V31.0049C26.8489 33.6893 27.835 36.3004 29.6864 38.2443C30.7118 39.3208 31.3375 40.6698 31.3375 41.9235C31.3375 44.5852 28.5179 45.807 25.0396 45.807C21.5614 45.807 18.7418 44.5852 18.7418 41.9235C18.7418 40.6699 19.3675 39.3208 20.3929 38.2443C22.2443 36.3005 23.2304 33.6894 23.2304 31.0049V26.7078C23.2305 26.4812 22.9586 26.3677 22.7963 26.5259Z" fill="#717ED4"/>
<path d="M29.6864 38.2441C27.835 36.3004 26.8489 33.6892 26.8489 31.0048V25.8452C26.8489 23.0247 24.8074 20.6826 22.1218 20.2116C23.5078 21.3009 24.4041 23.0319 24.4041 24.9817V30.3645C24.4041 33.1651 25.3901 35.8891 27.2416 37.9171C28.2669 39.0401 28.8926 40.4476 28.8926 41.7555C28.8926 44.2021 26.7031 45.482 23.8033 45.7519C24.2031 45.7886 24.6164 45.8069 25.0396 45.8069C28.5178 45.8069 31.3375 44.585 31.3375 41.9234C31.3375 40.6697 30.7118 39.3207 29.6864 38.2441Z" fill="#5766CC"/>
<path d="M19.8247 23.8897C19.7066 23.8899 19.5902 23.8624 19.4848 23.8093C19.3794 23.7563 19.288 23.6792 19.2178 23.5843C19.1588 23.5047 19.1161 23.4142 19.0921 23.3181C19.0681 23.2219 19.0632 23.122 19.0778 23.024C19.0924 22.926 19.1262 22.8318 19.1772 22.7469C19.2282 22.6619 19.2954 22.5879 19.375 22.5289L19.754 22.2482C19.8336 22.1893 19.924 22.1465 20.0202 22.1225C20.1163 22.0985 20.2162 22.0937 20.3142 22.1083C20.4122 22.1229 20.5064 22.1566 20.5913 22.2076C20.6763 22.2586 20.7503 22.3258 20.8093 22.4055C20.8683 22.4851 20.911 22.5755 20.935 22.6717C20.959 22.7678 20.9639 22.8677 20.9493 22.9657C20.9347 23.0637 20.9009 23.1579 20.8499 23.2428C20.7989 23.3278 20.7317 23.4019 20.6521 23.4608L20.2732 23.7415C20.1435 23.8379 19.9862 23.8898 19.8247 23.8897Z" fill="#544F56"/>
</svg>
