<svg width="34" height="34" viewBox="0 0 34 34" fill="none" xmlns="http://www.w3.org/2000/svg">
<g clip-path="url(#clip0_275_1543)">
<mask id="mask0_275_1543" style="mask-type:luminance" maskUnits="userSpaceOnUse" x="0" y="0" width="34" height="34">
<path d="M0 9.91821e-05H33.9999V34H0V9.91821e-05Z" fill="white"/>
</mask>
<g mask="url(#mask0_275_1543)">
<path d="M19.9863 32.4434C25.4621 31.2112 30.1868 27.0944 30.4346 20.5732C30.2967 20.6522 30.1541 20.7223 30.0107 20.7842C29.4661 21.019 28.8458 21.1679 28.2764 21.2637C27.7037 21.36 27.1622 21.4065 26.7656 21.4287C26.5669 21.4398 26.403 21.4449 26.2881 21.4473C26.2309 21.4485 26.1857 21.449 26.1543 21.4492H26.1025L25.3311 21.4443L25.6514 20.7412C27.3759 16.9602 26.9599 14.1986 26.1602 12.3984C25.7676 11.515 25.2748 10.8501 24.875 10.4004C24.6402 11.3229 23.9939 12.0452 23.1816 12.4893C22.0678 13.0982 20.603 13.2178 19.3252 12.6572C18.0233 12.086 16.9704 10.8344 16.6553 8.81836C16.3697 6.991 16.689 4.54216 17.9326 1.36133C12.286 2.80254 9.81044 7.18508 8.75 11.3984C8.19174 13.6166 8.03302 15.7657 8.01562 17.3643C8.00694 18.1624 8.03312 18.8205 8.06152 19.2773C8.07572 19.5057 8.09054 19.6839 8.10156 19.8037C8.10705 19.8634 8.11208 19.9086 8.11523 19.9385C8.11681 19.9534 8.11835 19.9646 8.11914 19.9717C8.11954 19.9752 8.11994 19.978 8.12012 19.9795V19.9814L8.19824 20.6465L7.53809 20.5322C7.05755 20.4493 6.52692 20.1575 6.04004 19.8281C5.53833 19.4888 5.02279 19.0676 4.56348 18.6621C4.22303 18.3616 3.90998 18.0646 3.64941 17.8115C3.16109 22.9469 4.59059 26.648 6.94922 29.084C8.19209 30.3676 9.70782 31.3158 11.3682 31.9375C8.29601 29.5289 6.90039 25.1836 9.1084 21.043C9.46583 20.3727 9.92043 19.6197 10.377 18.8467C10.8373 18.0672 11.3047 17.2587 11.7061 16.4551C12.108 15.6503 12.4357 14.8665 12.6211 14.1367C12.807 13.4048 12.8415 12.7607 12.6963 12.2188L12.4424 11.2725L13.3574 11.6221L13.1797 12.0889L13.3584 11.6221L13.3594 11.623H13.3604C13.3617 11.6236 13.3641 11.6242 13.3662 11.625C13.3705 11.6267 13.3764 11.6289 13.3838 11.6318C13.3987 11.6378 13.4195 11.6471 13.4463 11.6582C13.5001 11.6805 13.5774 11.7132 13.6738 11.7568C13.8665 11.844 14.1373 11.9748 14.457 12.1504C15.0951 12.5007 15.9367 13.0353 16.7383 13.7715C18.1871 15.1023 19.533 17.124 19.2617 19.8916C19.3555 19.841 19.455 19.7853 19.5576 19.7227C20.1797 19.3428 20.9116 18.7488 21.4121 17.8818L21.8184 17.1777L22.2637 17.8584C23.6138 19.9228 24.5941 22.9993 24.1963 25.9863C23.8711 28.4277 22.6267 30.78 19.9863 32.4434Z" fill="#FD4848" stroke="black"/>
<path fill-rule="evenodd" clip-rule="evenodd" d="M18.6245 20.722C19.9526 14.679 13.1792 12.0892 13.1792 12.0892C13.8807 14.7072 10.9529 18.6472 9.54967 21.2786C6.46431 27.0645 10.8413 33.2975 16.8102 33.3315C12.0556 33.1062 7.54679 24.4912 15.457 20.0292C13.4408 24.8046 17.8597 27.3711 20.4258 24.3267C23.3574 27.2838 20.7525 31.4869 17.6564 33.048C25.5943 29.9619 24.4393 22.0986 21.8452 18.1321C20.7336 20.0576 18.6245 20.722 18.6245 20.722Z" fill="#FF8244"/>
<path fill-rule="evenodd" clip-rule="evenodd" d="M20.4258 24.3267C17.8597 27.3711 13.4408 24.8046 15.4571 20.0291C7.54684 24.4912 12.0556 33.1062 16.8102 33.3315L16.8592 33.3316C17.1276 33.2446 17.3934 33.1501 17.6564 33.048C20.7525 31.4869 23.3575 27.2837 20.4258 24.3267Z" fill="#FFBA4A"/>
</g>
</g>
<defs>
<clipPath id="clip0_275_1543">
<rect width="34" height="34" fill="white"/>
</clipPath>
</defs>
</svg>
