<svg width="36" height="26" viewBox="0 0 36 26" fill="none" xmlns="http://www.w3.org/2000/svg">
<path d="M0.580688 9.12897H35.4194V16.8709H0.580688V9.12897Z" fill="white"/>
<path d="M32.9291 1.38708H3.07102C1.69563 1.38708 0.580688 2.5021 0.580688 3.87741V9.12898H35.4194V3.87741C35.4194 2.50203 34.3044 1.38708 32.9291 1.38708Z" fill="#FF7900"/>
<path d="M0.580688 22.1225C0.580688 23.4979 1.6957 24.6129 3.07102 24.6129H32.9291C34.3045 24.6129 35.4194 23.4979 35.4194 22.1225V16.871H0.580688V22.1225Z" fill="#259245"/>
<path d="M18 15.129C16.826 15.129 15.871 14.174 15.871 13C15.871 11.826 16.826 10.8709 18 10.8709C19.174 10.8709 20.1291 11.826 20.1291 13C20.1291 14.174 19.174 15.129 18 15.129ZM18 12.0323C17.4664 12.0323 17.0323 12.4664 17.0323 13C17.0323 13.5336 17.4664 13.9677 18 13.9677C18.5337 13.9677 18.9677 13.5336 18.9677 13C18.9677 12.4663 18.5337 12.0323 18 12.0323Z" fill="#164FCE"/>
<path d="M32.929 0.806458H3.07097C1.37763 0.806458 0 2.18402 0 3.87743V22.1226C0 23.8159 1.37763 25.1935 3.07097 25.1935H32.929C34.6224 25.1935 35.9999 23.8159 35.9999 22.1225V3.87743C36 2.18402 34.6224 0.806458 32.929 0.806458ZM3.07097 1.96774H32.929C33.982 1.96774 34.8386 2.82436 34.8386 3.87743V8.54836H5.22584C4.90514 8.54836 4.6452 8.8083 4.6452 9.129C4.6452 9.44969 4.90514 9.70964 5.22584 9.70964H34.8387V16.2903H1.16128V9.70964H2.9032C3.2239 9.70964 3.48384 9.44969 3.48384 9.129C3.48384 8.8083 3.2239 8.54836 2.9032 8.54836H1.16128V3.87743C1.16128 2.82436 2.01797 1.96774 3.07097 1.96774ZM32.929 24.0322H3.07097C2.0179 24.0322 1.16128 23.1756 1.16128 22.1225V17.4516H34.8387V22.1225C34.8387 23.1756 33.982 24.0322 32.929 24.0322Z" fill="#111A21"/>
</svg>
