<svg width="38" height="38" viewBox="0 0 38 38" fill="none" xmlns="http://www.w3.org/2000/svg">
<g clip-path="url(#clip0_275_1461)">
<path d="M21.3777 29.9238C21.7787 30.245 22.2021 30.5375 22.6445 30.799C24.6475 31.9836 26.8587 32.4369 28.9335 32.2432C29.3432 32.2049 29.5917 31.7759 29.4276 31.3985C28.6721 29.661 27.3936 28.0825 25.6614 26.9207L21.8756 27.4124L21.3777 29.9238Z" fill="#CCF49F"/>
<path d="M16.6279 29.9238C16.2268 30.245 15.8035 30.5375 15.3611 30.799C13.358 31.9836 11.1469 32.4369 9.07214 32.2432C8.66237 32.2049 8.41389 31.7759 8.57799 31.3985C9.33346 29.661 10.612 28.0825 12.3442 26.9207L16.13 27.4124L16.6279 29.9238Z" fill="#95D6A4"/>
<path d="M3.39603 11.0648C3.30498 11.0476 3.2112 11.0517 3.12198 11.0767C3.03276 11.1017 2.95049 11.1469 2.88158 11.2088C2.81266 11.2707 2.75894 11.3477 2.72459 11.4338C2.69025 11.5198 2.6762 11.6126 2.68353 11.705C2.9004 14.6651 4.09978 17.6474 6.30853 20.1054C8.7052 22.7726 11.8421 24.3237 15.0216 24.7188C14.9674 21.5153 13.7592 18.2311 11.3625 15.5639C9.15378 13.1059 6.31624 11.5957 3.39603 11.0648Z" fill="#FF8086"/>
<path d="M1.30132 17.5978C1.20949 17.6102 1.12176 17.6436 1.04493 17.6954C0.968097 17.7472 0.904239 17.816 0.858313 17.8964C0.812387 17.9769 0.78563 18.0669 0.78012 18.1594C0.77461 18.2519 0.790495 18.3444 0.826542 18.4298C1.96394 21.1712 4.04096 23.6245 6.91107 25.2626C10.0254 27.0399 13.491 27.525 16.6333 26.8994C15.5737 23.8758 13.3933 21.1386 10.279 19.3613C7.40893 17.7233 4.24023 17.1828 1.30132 17.5978Z" fill="#FF9A9F"/>
<path d="M14.8256 25.8174C12.4809 25.8174 10.1419 25.1897 8.0612 24.0023C5.45405 22.5143 3.40746 20.2087 2.27088 17.5015C1.9458 17.5239 1.62169 17.5527 1.30136 17.5979C1.20953 17.6103 1.1218 17.6437 1.04497 17.6955C0.968135 17.7473 0.904274 17.8161 0.858343 17.8965C0.812411 17.977 0.785645 18.067 0.780124 18.1595C0.774603 18.252 0.790474 18.3445 0.826506 18.4299C1.96391 21.1713 4.04092 23.6246 6.91103 25.2627C10.0253 27.04 13.4909 27.5251 16.6332 26.8995C16.4953 26.5078 16.3394 26.1227 16.1658 25.7454C15.7222 25.7907 15.2728 25.8174 14.8256 25.8174Z" fill="#FF8086"/>
<path d="M34.5682 11.0648C34.6592 11.0477 34.753 11.0518 34.8422 11.0768C34.9315 11.1017 35.0137 11.147 35.0826 11.2089C35.1516 11.2708 35.2053 11.3478 35.2396 11.4338C35.274 11.5199 35.288 11.6127 35.2807 11.7051C35.0638 14.6652 33.8644 17.6475 31.6557 20.1055C29.259 22.7726 26.1222 24.3238 22.9426 24.7189C22.9968 21.5154 24.205 18.2311 26.6017 15.564C28.8104 13.106 31.648 11.5958 34.5682 11.0648Z" fill="#FFB9B9"/>
<path d="M36.6629 17.5979C36.7547 17.6102 36.8425 17.6436 36.9193 17.6954C36.9961 17.7472 37.06 17.816 37.1059 17.8965C37.1518 17.9769 37.1786 18.0669 37.1841 18.1594C37.1896 18.2519 37.1737 18.3444 37.1377 18.4298C36.0003 21.1713 33.9233 23.6246 31.0531 25.2626C27.9389 27.0399 24.4732 27.5251 21.3309 26.8995C22.3906 23.8758 24.571 21.1386 27.6852 19.3613C30.5554 17.7233 33.724 17.1828 36.6629 17.5979ZM18.635 3.54142C15.5393 5.92926 13.6455 9.07057 13.6455 12.5226L18.9904 19.926L24.3545 12.5226C24.3545 9.07057 22.4607 5.92926 19.365 3.54142C19.1525 3.37747 18.8476 3.37747 18.635 3.54142Z" fill="#FFB9B9"/>
<path d="M20.2433 4.27277C19.9615 4.02257 19.6711 3.77728 19.3653 3.54141C19.1526 3.37739 18.8479 3.37739 18.6353 3.54141C15.5395 5.92933 13.6458 9.07056 13.6458 12.5227L14.0669 13.1061L14.7034 13.0884L15.2603 13.0729L15.2813 12.5161C15.3959 9.47884 17.119 6.58015 20.1332 4.35411L20.2433 4.27277Z" fill="#FF9A9F"/>
<path d="M17.713 13.8237C15.9858 10.4092 13.0126 8.0637 9.56443 6.94827C9.24336 6.84444 8.89349 7.03963 8.81326 7.36738C8.08021 10.3634 8.28594 13.5344 9.5956 16.4239L15.4304 19.926L17.713 13.8237Z" fill="#FF9A9F"/>
<path d="M9.59564 16.4237L10.9367 17.2286L11.817 17.362L11.3646 16.3641C10.1015 13.5774 9.87685 10.471 10.7096 7.37722C10.334 7.2204 9.95337 7.07389 9.56454 6.94809C9.24347 6.84425 8.89353 7.03945 8.81337 7.36727C8.08017 10.3633 8.2859 13.5343 9.59564 16.4237Z" fill="#FF8086"/>
<path d="M20.3894 13.8237C22.1166 10.4092 25.0898 8.0637 28.538 6.94827C28.859 6.84444 29.2089 7.03963 29.2891 7.36738C30.0222 10.3634 29.8164 13.5344 28.5068 16.4239L22.672 19.926L20.3894 13.8237Z" fill="#FF9A9F"/>
<path d="M21.7886 17.5641L22.6721 19.9259L28.5068 16.4237C28.8548 15.6561 29.1194 14.8679 29.3146 14.0692L29.0409 14.1136C26.2794 14.5623 23.7803 15.7573 21.7886 17.5641Z" fill="#FF8086"/>
<path d="M18.635 12.3986C15.5393 14.7864 13.6455 17.9277 13.6455 21.3798L18.9904 28.7831L24.3545 21.3798C24.3545 17.9277 22.4607 14.7864 19.365 12.3986C19.1525 12.2346 18.8476 12.2346 18.635 12.3986Z" fill="#FF8086"/>
<path d="M20.3067 13.1861C20.0059 12.916 19.6938 12.6521 19.365 12.3986C19.1524 12.2346 18.8476 12.2346 18.635 12.3986C15.5393 14.7865 13.6455 17.9277 13.6455 21.3799L14.214 22.1674L14.4623 22.2404L15.2078 22.4599L15.2251 21.683C15.2946 18.5574 17.0606 15.5682 20.198 13.266L20.3067 13.1861Z" fill="#E5646E"/>
<path d="M16.0254 28.4039C16.0254 30.69 16.9916 32.7788 18.5859 34.4013C18.8105 34.6299 19.1898 34.6299 19.4144 34.4013C21.0086 32.7788 21.9749 30.69 21.9749 28.4039L16.0254 28.4039Z" fill="#B3E59F"/>
<path d="M31.4961 15.6847C31.8199 15.6835 32.09 15.9536 32.0888 16.2774C32.0765 19.6184 30.906 22.817 28.5095 25.2134C25.974 27.749 22.5404 28.9121 18.9904 28.7831C18.8613 25.2331 20.0245 21.7995 22.5601 19.264C24.9564 16.8675 28.1551 15.697 31.4961 15.6847Z" fill="#FF9A9F"/>
<path d="M6.4848 15.6847C6.16099 15.6835 5.89091 15.9536 5.89209 16.2774C5.90441 19.6184 7.07492 22.817 9.47137 25.2134C12.0069 27.749 15.4405 28.9121 18.9905 28.7831C19.1196 25.2331 17.9564 21.7995 15.4208 19.264C13.0244 16.8675 9.82584 15.697 6.4848 15.6847Z" fill="#E5646E"/>
<path d="M37.9314 17.5197C37.8931 17.4499 37.8403 17.3891 37.7765 17.3414C37.7127 17.2938 37.6394 17.2604 37.5615 17.2435C36.534 17.0205 35.4848 16.9127 34.4334 16.9223C35.3359 15.0495 35.8311 13.0055 35.8712 10.9616C35.8728 10.8819 35.8572 10.8029 35.8256 10.7298C35.794 10.6567 35.7471 10.5912 35.6881 10.5378C35.629 10.4844 35.5592 10.4443 35.4833 10.4202C35.4074 10.396 35.3272 10.3885 35.2481 10.398C33.5133 10.6069 31.7927 11.1542 30.2223 11.9901C30.3558 10.22 30.1361 8.38855 29.5573 6.59877C29.5141 6.46495 29.4217 6.35247 29.2989 6.28393C29.1761 6.21539 29.0319 6.19588 28.8953 6.22931C27.1201 6.66393 25.4777 7.40931 24.0631 8.41356C23.1544 6.30612 21.5284 4.35803 19.3284 2.75082C19.2331 2.6812 19.1181 2.64368 19 2.64368C18.882 2.64368 18.767 2.6812 18.6717 2.75082C16.4728 4.35729 14.8459 6.30575 13.9373 8.41252C12.5319 7.41243 10.901 6.66913 9.10472 6.22931C8.96812 6.19586 8.82392 6.21537 8.70111 6.28391C8.57831 6.35245 8.48601 6.46494 8.44276 6.59877C7.86401 8.38855 7.64432 10.22 7.77784 11.9901C6.20744 11.1542 4.4869 10.6069 2.75197 10.398C2.67291 10.3885 2.59273 10.3961 2.51685 10.4202C2.44097 10.4444 2.37115 10.4845 2.3121 10.5379C2.25304 10.5913 2.20613 10.6568 2.17453 10.7299C2.14293 10.8029 2.12737 10.882 2.1289 10.9616C2.16898 13.0055 2.66424 15.0495 3.56667 16.9223C2.51527 16.9127 1.46608 17.0205 0.438567 17.2435C0.36074 17.2604 0.287444 17.2938 0.223629 17.3414C0.159813 17.3891 0.106964 17.4499 0.0686502 17.5197C0.0303364 17.5895 0.00745009 17.6667 0.00153667 17.7462C-0.00437674 17.8256 0.00682048 17.9053 0.0343722 17.9801C1.23731 21.2423 3.62819 23.9873 6.76676 25.7094C8.07204 26.4256 9.45859 26.9408 10.8925 27.2429C9.40486 28.4641 8.30464 30.1188 7.75691 31.9816C7.73537 32.0548 7.72914 32.1317 7.73858 32.2075C7.74803 32.2832 7.77296 32.3563 7.81182 32.422C7.85069 32.4877 7.90265 32.5447 7.96449 32.5895C8.02632 32.6343 8.09671 32.6659 8.17127 32.6823C8.8563 32.8333 9.5557 32.9096 10.2572 32.9098C11.9692 32.9098 13.6575 32.4531 15.1578 31.566C15.3894 31.4286 15.6151 31.2818 15.8346 31.1258C16.3188 32.6484 17.2735 34.056 18.6383 35.2228C18.7425 35.3118 18.8712 35.3563 19.0001 35.3563C19.1289 35.3563 19.2576 35.3118 19.3618 35.2228C20.7277 34.0552 21.6827 32.6464 22.1666 31.1225C22.3875 31.2796 22.6148 31.4276 22.8479 31.5659C24.3482 32.4532 26.0362 32.9098 27.7485 32.9098C28.4434 32.9098 29.1426 32.8344 29.8343 32.6822C29.9089 32.6658 29.9792 32.6342 30.0411 32.5894C30.1029 32.5446 30.1549 32.4876 30.1937 32.4219C30.2326 32.3562 30.2575 32.2832 30.267 32.2074C30.2764 32.1316 30.2702 32.0548 30.2487 31.9815C29.7009 30.1183 28.6002 28.4632 27.112 27.2418C28.5444 26.9397 29.9295 26.4249 31.2335 25.7094C34.372 23.9872 36.7629 21.2422 37.9659 17.98C37.9934 17.9053 38.0045 17.8255 37.9986 17.7461C37.9926 17.6667 37.9697 17.5895 37.9314 17.5197ZM30.0438 13.3729C31.4833 12.491 33.0904 11.8837 34.7281 11.5993C34.595 13.4645 34.0537 15.3128 33.1485 16.9907C32.9764 17.0076 32.8043 17.0284 32.6321 17.0515C32.6575 16.5928 32.6619 16.1332 32.6452 15.6741C32.6401 15.5335 32.582 15.4001 32.4825 15.3007C32.3831 15.2012 32.2497 15.1431 32.1091 15.138C31.2325 15.1062 30.3733 15.1508 29.5385 15.2674C29.7562 14.6501 29.9251 14.0166 30.0438 13.3729ZM19.0001 3.89587C20.9646 5.40585 22.3923 7.20313 23.1528 9.12436C22.9954 9.25803 22.8413 9.39558 22.6906 9.53686C22.467 9.74779 22.4567 10.1001 22.6678 10.3237C22.8788 10.5474 23.2311 10.5576 23.4546 10.3466C24.8698 9.01132 26.6575 8.01471 28.6507 7.44568C29.4288 10.2085 29.2904 13.0436 28.253 15.5084C26.7365 15.8687 25.3217 16.4813 24.0582 17.3262C23.4335 15.882 22.4718 14.513 21.2193 13.2774C21.2557 13.2089 21.2926 13.1407 21.3302 13.0734C21.5106 12.7502 21.7066 12.436 21.9175 12.1318C21.9591 12.0717 21.9886 12.004 22.0041 11.9326C22.0196 11.8612 22.0209 11.7874 22.0079 11.7154C21.9949 11.6435 21.9678 11.5748 21.9283 11.5133C21.8888 11.4518 21.8375 11.3988 21.7774 11.3571C21.7174 11.3154 21.6497 11.286 21.5782 11.2705C21.5068 11.2549 21.433 11.2537 21.3611 11.2667C21.2891 11.2797 21.2205 11.3067 21.159 11.3463C21.0975 11.3858 21.0444 11.4371 21.0027 11.4971C20.7776 11.822 20.568 12.1573 20.3745 12.502C20.0365 12.2131 19.6875 11.9372 19.3284 11.675C19.233 11.6054 19.118 11.5679 19 11.5679C18.8819 11.5679 18.7669 11.6054 18.6716 11.675C18.3124 11.9372 17.9634 12.213 17.6253 12.5019C16.9018 11.2134 15.9633 10.0783 14.849 9.12436C15.6096 7.20365 17.0363 5.40548 19.0001 3.89587ZM9.34957 7.4456C12.5603 8.36013 15.1468 10.3439 16.6699 13.0734C16.7076 13.1411 16.7446 13.2091 16.7809 13.2776C15.5285 14.5132 14.5665 15.8823 13.9419 17.3262C12.6785 16.4812 11.2637 15.8685 9.74701 15.5081C8.70965 13.0433 8.57131 10.2084 9.34957 7.4456ZM3.27209 11.5993C4.90988 11.8837 6.51693 12.491 7.95648 13.3729C8.07513 14.0165 8.24402 14.6499 8.46161 15.2672C7.62688 15.1507 6.76772 15.1061 5.89105 15.1379C5.7505 15.143 5.61709 15.2011 5.51764 15.3006C5.41819 15.4001 5.36007 15.5335 5.35497 15.674C5.33833 16.1331 5.34271 16.5927 5.3681 17.0514C5.19592 17.0284 5.0238 17.0075 4.85169 16.9906C3.94644 15.3128 3.40517 13.4645 3.27209 11.5993ZM7.30239 24.7334C4.59838 23.2497 2.49561 20.9487 1.32296 18.2077C2.68933 17.9826 4.08271 17.9771 5.47654 18.191C5.8598 21.0142 7.07447 23.557 9.00957 25.527C8.42343 25.3009 7.85309 25.0357 7.30239 24.7334ZM14.5911 30.6076C12.9042 31.6052 10.9482 31.9876 9.02182 31.7067C9.61201 30.1335 10.6577 28.7623 12.0191 27.7812C13.091 28.3554 14.2507 28.7784 15.4734 29.0391C15.4834 29.3425 15.5116 29.6437 15.5571 29.942C15.2505 30.1855 14.9278 30.4079 14.5911 30.6076ZM9.87459 24.8198C7.66436 22.6096 6.46186 19.5797 6.45823 16.2413C9.79666 16.2448 12.8266 17.4474 15.0368 19.6576C15.4828 20.1037 15.891 20.5861 16.257 21.0999C16.3426 21.2202 16.4725 21.3015 16.6181 21.326C16.7637 21.3505 16.913 21.3162 17.0333 21.2306C17.1536 21.145 17.2349 21.0151 17.2594 20.8696C17.2839 20.724 17.2496 20.5746 17.164 20.4544C16.762 19.8902 16.3138 19.3603 15.824 18.8704C15.5196 18.5663 15.1997 18.2782 14.8656 18.0072C15.6301 16.102 17.0503 14.3189 19 12.8202C20.95 14.319 22.3709 16.1009 23.1356 18.0063C22.801 18.2775 22.4807 18.5659 22.1761 18.8704C20.6783 20.3681 19.6039 22.2053 19.0009 24.249C18.844 23.7182 18.6538 23.1978 18.4314 22.6909C18.3713 22.557 18.2606 22.4522 18.1236 22.3995C17.9866 22.3468 17.8343 22.3503 17.6999 22.4093C17.5655 22.4683 17.4598 22.5781 17.4059 22.7146C17.352 22.8512 17.3542 23.0035 17.4121 23.1384C18.103 24.7119 18.4525 26.4245 18.4532 28.2362C15.1149 28.2326 12.0848 27.0301 9.87459 24.8198ZM19.0001 34.0509C17.558 32.6826 16.7193 30.9984 16.5979 29.2299C17.2176 29.3097 17.8418 29.3496 18.4667 29.3495H19.5334C20.1674 29.3495 20.7911 29.3087 21.4022 29.2298C21.281 30.9983 20.4422 32.6826 19.0001 34.0509ZM28.9838 31.7066C27.0575 31.9875 25.1015 31.6052 23.4145 30.6076C23.076 30.4068 22.7517 30.1831 22.4437 29.938C22.4889 29.641 22.5168 29.341 22.5268 29.0389C23.7506 28.7779 24.9114 28.3544 25.9841 27.7793C27.3467 28.7607 28.3932 30.1326 28.9838 31.7066ZM19.5471 28.2362C19.5506 24.8978 20.7531 21.8678 22.9634 19.6576C25.1737 17.4472 28.2033 16.2447 31.5419 16.2413C31.5384 19.5797 30.3358 22.6097 28.1256 24.8198C25.9153 27.0302 22.8858 28.2327 19.5471 28.2362ZM30.6978 24.7334C30.1471 25.0357 29.5767 25.3009 28.9906 25.5271C30.9257 23.5571 32.1404 21.0142 32.5236 18.1911C33.9175 17.9771 35.3109 17.9826 36.6772 18.2078C35.5046 20.9488 33.4019 23.2497 30.6978 24.7334Z" fill="black"/>
</g>
<defs>
<clipPath id="clip0_275_1461">
<rect width="38" height="38" fill="white"/>
</clipPath>
</defs>
</svg>
