<svg width="48" height="48" viewBox="0 0 48 48" fill="none" xmlns="http://www.w3.org/2000/svg">
<path d="M24.0078 0.578125C11.0859 0.578125 0.570312 11.0937 0.570312 24.0156C0.570312 36.9375 11.0859 47.4531 24.0078 47.4531C36.9297 47.4531 47.4453 36.9375 47.4453 24.0156C47.4453 11.0937 36.9375 0.578125 24.0078 0.578125ZM24.0078 45.8906C11.9453 45.8906 2.13281 36.0781 2.13281 24.0156C2.13281 11.9531 11.9453 2.14062 24.0078 2.14062C36.0703 2.14062 45.8828 11.9531 45.8828 24.0156C45.8828 36.0781 36.0703 45.8906 24.0078 45.8906ZM37.1562 10.7266C36.8203 10.2422 36.6719 9.55469 36.75 8.89844C36.75 8.875 36.7734 8.78906 36.7812 8.76562C36.8203 8.53906 36.7578 8.30469 36.6172 8.13281C35.5234 6.8125 33.3672 5.54688 30.5859 5.96094C29.375 6.13281 28.5312 6.07031 27.9297 5.76562C27.9062 5.75 27.875 5.74219 27.8516 5.72656C27.3125 5.52344 26.8203 5.02344 26.5156 4.375L26.4766 4.28125C26.4307 4.1737 26.3613 4.07784 26.2734 4.00075C26.1855 3.92367 26.0814 3.86734 25.9688 3.83594C25.1563 3.60938 22.2969 3.05469 19.7109 5.29688C19.2891 5.71094 18.8906 6 18.4609 6.19531C18.0234 6.42188 17.7031 6.53906 17.4062 6.57031C16.6406 6.64844 16.0078 6.51562 15.4844 6.16406L15.0391 6.80469L15.3984 6.10156C15.3012 6.03227 15.1889 5.98695 15.0708 5.9693C14.9526 5.95165 14.832 5.96217 14.7188 6C13.8984 6.25781 11.1484 7.35938 10.2578 10.6016C9.98438 11.6641 9.57031 12.4141 8.97656 12.9531C8.85156 13.0547 8.71875 13.1484 8.50781 13.2656C8.38281 13.3516 8.24219 13.4219 8.09375 13.4766C7.80469 13.5859 7.48437 13.6484 7.19531 13.6484H7.1875C7.1875 13.6484 7.07812 13.6328 7.05469 13.6328C6.82031 13.6328 6.58594 13.7266 6.42969 13.9062C5.86719 14.5625 4.125 16.9531 5.14063 20.1328L5.24219 20.5391C5.35156 20.9688 5.46094 21.375 5.46094 21.6719C5.46094 22.0938 5.44531 22.5234 5.34375 22.8828C5.25 23.2266 5.03125 23.5547 4.86719 23.7812C4.6875 24.0312 4.46094 24.25 4.21875 24.4062C4.19531 24.4219 4.11719 24.4531 4.09375 24.4687C3.99821 24.526 3.91602 24.603 3.85269 24.6947C3.78937 24.7863 3.74636 24.8904 3.72656 25C3.46094 26.4844 3.82812 28.7578 5.57812 30.5469C5.71875 30.7578 5.89062 30.9297 6.09375 31.0547C6.53125 31.4375 6.85938 31.8125 7.14062 32.1562C7.33594 32.4062 7.45312 32.7031 7.57031 33.0156L7.63281 33.1797C7.82031 33.75 7.76562 34.4531 7.51562 35.0547C7.5 35.0781 7.46094 35.1484 7.44531 35.1719C7.34375 35.375 7.33594 35.6172 7.42969 35.8203C8.02344 37.2188 9.59375 38.9453 12.0781 39.4922C12.1875 39.6406 12.3125 39.7734 12.4766 39.8906C13.0391 40.2969 13.7266 40.3359 14.2891 40.0469C14.6328 40.1953 14.9297 40.375 15.1719 40.5938C15.625 40.9453 15.9531 41.5625 16.0703 42.2266V42.3516C16.0938 42.5859 16.2188 42.7969 16.4141 42.9297C17.8438 43.875 20.2734 44.4688 22.8438 43.2891C22.866 43.2818 22.8871 43.2713 22.9062 43.2578C23.2031 43.4922 23.5781 43.6328 24 43.6328C24.6719 43.6328 25.2266 43.2891 25.5234 42.75C26.1875 42.8594 26.7422 43.1641 27.1641 43.6719L27.7734 43.1797L27.2188 43.7422C27.2915 43.8343 27.3841 43.9088 27.4896 43.9602C27.5951 44.0116 27.7108 44.0385 27.8281 44.0391H27.8516C28.7109 44.0156 31.6562 43.7188 33.4141 40.8906C33.6016 40.5859 33.7656 40.3359 33.9297 40.1328C34.4531 40.3203 35.0391 40.2422 35.5391 39.8828C35.9375 39.5938 36.1797 39.1797 36.25 38.7422H36.2891C36.6094 38.7188 36.9375 38.7578 37.2109 38.8359C37.2344 38.8438 37.3047 38.875 37.3359 38.8828C37.5703 38.9609 37.8203 38.9297 38.0234 38.7969C38.7422 38.3203 41.0859 36.4922 41.0234 33.125C41 32.4141 41.0781 31.8125 41.2578 31.2812C41.9062 31.1953 42.4531 30.7578 42.6719 30.0781C42.7344 29.8828 42.7578 29.6797 42.7578 29.4922C42.875 29.4375 42.9844 29.3906 43.1094 29.3594C43.1517 29.3554 43.1935 29.3475 43.2344 29.3359C43.4531 29.2813 43.6328 29.1406 43.7422 28.9453C44.2031 28.0781 44.3125 26.9844 44.3516 26.125V26.0234C44.3047 25.3906 44.1875 24.7891 44 24.1484C43.7812 23.5 43.5156 22.9609 43.2109 22.5156C43.0826 22.3192 42.9652 22.1157 42.8594 21.9062L42.7734 21.75C42.6484 21.5312 42.5547 21.3281 42.4766 21.125C42.3359 20.7344 42.3047 20.3516 42.2813 19.9922C42.2813 19.8906 42.2969 19.7891 42.3047 19.6953C42.6094 19.3672 42.7656 18.9375 42.75 18.4766C42.8047 18.3906 42.8594 18.2969 42.9297 18.2188C42.9453 18.2031 43.0078 18.1484 43.0234 18.125C43.1797 17.9609 43.25 17.7344 43.2266 17.5078C43.0547 15.8984 41.9297 13.5938 39.3203 12.4141C38.2188 11.9141 37.5391 11.3984 37.1484 10.7578L37.1562 10.7266ZM27.2422 7.16406C28.1484 7.61719 29.25 7.71875 30.8047 7.5C31.9844 7.32813 33.0078 7.54688 33.8281 7.9375C33.5781 8.04688 33.3438 8.21094 33.1484 8.44531L26.3984 16.6562L25.7578 6.05469C26.1797 6.54688 26.6797 6.9375 27.2422 7.16406ZM14.8359 7.60156C15.6094 8.04688 16.5312 8.21875 17.5547 8.11719C18.0547 8.0625 18.5547 7.89844 19.1406 7.58594C19.6953 7.32812 20.2344 6.94531 20.7578 6.4375C21.2969 5.96875 21.8516 5.67969 22.3828 5.48438C22.3125 5.65625 22.2656 5.84375 22.2578 6.04688L21.6172 16.6562L14.8672 8.44531C14.6719 8.20312 14.4297 8.03906 14.1641 7.92969C14.4062 7.79688 14.6406 7.67969 14.8359 7.60156ZM7.39062 15.1797C7.82812 15.1562 8.25 15.0703 8.64844 14.9141C8.89062 14.8203 9.13281 14.7031 9.28906 14.5937C9.53125 14.4609 9.76562 14.3125 9.99219 14.1172C10.8281 13.3594 11.4062 12.3359 11.7578 10.9922C11.8203 10.7812 11.8906 10.5859 11.9688 10.3906C11.9922 10.4297 12.0078 10.4687 12.0312 10.5078L17.75 19.4688L7.46094 16.7969C7.16406 16.7188 6.875 16.7266 6.60156 16.7891C6.8125 16.0859 7.14062 15.5312 7.39062 15.1875V15.1797ZM6.375 27.8984C6.15625 27.9844 5.96094 28.1094 5.80469 28.2578C5.30469 27.3203 5.15625 26.3516 5.21875 25.5859C5.57812 25.3281 5.88281 25.0156 6.13281 24.6641C6.35938 24.3437 6.6875 23.8516 6.84375 23.2734C6.99219 22.7422 7.01562 22.1875 7.01562 21.6562C7.01562 21.2031 6.91406 20.7578 6.78906 20.2891L16.2656 24.0156L6.36719 27.8984H6.375ZM12.0234 37.5234C11.9609 37.6172 11.9141 37.7188 11.8672 37.8203C10.4375 37.3438 9.47656 36.375 9.00781 35.5C9.36719 34.5469 9.40625 33.5469 9.10156 32.6328L9.03125 32.4375C8.89062 32.0625 8.71094 31.6016 8.35937 31.1562L8.25 31.0234L17.75 28.5547L12.0312 37.5156L12.0234 37.5234ZM22.1562 41.8828C20.3672 42.7031 18.6641 42.3984 17.5625 41.7969C17.4141 41.1172 17.0469 40.0781 16.1719 39.3984C15.9531 39.1953 15.7109 39.0312 15.4375 38.8672L21.6094 31.3672L22.2422 41.8438C22.2422 41.8438 22.1875 41.8672 22.1562 41.8828ZM24 28.4844C21.5391 28.4844 19.5312 26.4766 19.5312 24.0156C19.5312 21.5547 21.5391 19.5469 24 19.5469C26.4609 19.5469 28.4688 21.5547 28.4688 24.0156C28.4688 26.4766 26.4609 28.4844 24 28.4844ZM32.0781 40.0781C30.9297 41.9219 29.1563 42.3672 28.1641 42.4609C27.5313 41.7969 26.7109 41.375 25.7969 41.2188L26.3906 31.375L32.75 39.1094C32.5313 39.375 32.3125 39.6953 32.0781 40.0859V40.0781ZM39.4453 33.1641C39.4922 35.375 38.1563 36.7188 37.4375 37.2812C37.0078 37.1797 36.5781 37.1484 36.1406 37.1797C36.0313 37.1875 35.9141 37.2188 35.7969 37.2422L30.25 28.5625L39.6875 31.0156C39.5078 31.6641 39.4141 32.375 39.4375 33.1719L39.4453 33.1641ZM41.8984 23.3828C42.1328 23.7187 42.3281 24.125 42.4922 24.6016C42.6328 25.0859 42.7266 25.5703 42.7734 26.0781C42.7422 26.6562 42.6797 27.3516 42.4688 27.9062C42.3125 27.9609 42.1641 28.0312 42.0156 28.1094C41.8984 28.0234 41.7734 27.9531 41.625 27.8984L31.7266 24.0156L40.7422 20.4766C40.7812 20.8359 40.8438 21.2188 40.9922 21.6328C41.0938 21.9219 41.2344 22.2188 41.3906 22.4922L41.4531 22.6172C41.5781 22.8594 41.7109 23.1172 41.8984 23.3906V23.3828ZM41.4688 16.7969C41.1797 16.7188 40.8672 16.7109 40.5469 16.7969L30.2578 19.4688L35.5859 11.125C35.6641 11.2812 35.7422 11.4375 35.8359 11.5781C36.3672 12.4609 37.2656 13.1641 38.6719 13.8047C40.2422 14.5156 41.1094 15.7266 41.4766 16.7969H41.4688ZM24 21.5859C22.6641 21.5859 21.5703 22.6719 21.5703 24.0156C21.5703 25.3594 22.6562 26.4453 24 26.4453C25.3438 26.4453 26.4297 25.3594 26.4297 24.0156C26.4297 22.6719 25.3438 21.5859 24 21.5859Z" fill="url(#paint0_linear_275_1344)"/>
<defs>
<linearGradient id="paint0_linear_275_1344" x1="0.570313" y1="24.0156" x2="47.4453" y2="24.0156" gradientUnits="userSpaceOnUse">
<stop stop-color="#06C0FF"/>
<stop offset="1" stop-color="#0169C2"/>
</linearGradient>
</defs>
</svg>
