<svg width="38" height="48" viewBox="0 0 38 48" fill="none" xmlns="http://www.w3.org/2000/svg">
<path d="M36.8 7.95H36.7C30.3 7.95 24.1 5.25 19.75 0.55C19.35 0.15 18.6 0.15 18.25 0.55C13.9 5.25 7.70002 7.95 1.30002 7.95H1.20002C0.650024 7.95 0.150024 8.4 0.150024 9V20.35C0.150024 29.7 4.80002 38.4 12.55 43.6L18.4 47.55C18.55 47.65 18.75 47.75 19 47.75C19.25 47.75 19.4 47.7 19.6 47.55L25.45 43.6C29.2677 41.0413 32.3961 37.5815 34.5588 33.5264C36.7216 29.4713 37.8519 24.9458 37.85 20.35V8.95C37.8 8.4 37.35 7.95 36.8 7.95ZM25.973 20.968L18.671 28.896C18.296 29.313 17.7535 29.5215 17.211 29.5215C16.6685 29.5215 16.126 29.2715 15.7505 28.896L12.0785 24.932C11.3275 24.097 11.3695 22.8455 12.2035 22.0945C13.0385 21.3435 14.29 21.3855 15.041 22.2195L17.2525 24.598L23.094 18.298C23.845 17.463 25.097 17.4215 25.9315 18.1725C26.6825 18.882 26.7245 20.1335 25.973 20.968Z" fill="url(#paint0_linear_275_1307)"/>
<defs>
<linearGradient id="paint0_linear_275_1307" x1="-3.98847" y1="-5.2845" x2="42.02" y2="45.136" gradientUnits="userSpaceOnUse">
<stop stop-color="#97E0FF"/>
<stop offset="1" stop-color="#1075FF"/>
</linearGradient>
</defs>
</svg>
