<svg width="57" height="58" viewBox="0 0 57 58" fill="none" xmlns="http://www.w3.org/2000/svg">
<g clip-path="url(#clip0_275_1269)">
<mask id="mask0_275_1269" style="mask-type:luminance" maskUnits="userSpaceOnUse" x="0" y="0" width="57" height="58">
<path d="M2.32301e-05 8.24032L49.4297 0.710798L56.9592 50.1405L7.52954 57.67L2.32301e-05 8.24032Z" fill="white"/>
</mask>
<g mask="url(#mask0_275_1269)">
<path d="M45.3584 9.21775C39.8948 5.1986 33.1729 6.22253 29.1538 11.6862L26.4079 15.4191L25.4132 15.5446L24.2793 14.7555L21.6589 12.8278C16.1953 8.8087 9.32636 8.8672 5.30722 14.3308C1.28817 19.7945 2.45916 27.4817 7.92269 31.5009L27.967 46.2457L29.1512 47.1169C29.213 47.1708 29.277 47.2223 29.3429 47.2711L32.6146 49.6779C33.982 50.6837 35.9056 50.3906 36.9115 49.0234C37.2492 48.5658 37.4526 48.0231 37.4991 47.4563C37.5411 46.9424 37.2604 46.4533 37.0507 45.9814C36.8412 45.5094 36.7027 45.0545 36.2569 44.7267L37.1922 45.4146C38.5595 46.4204 40.4832 46.1274 41.489 44.7601C41.8255 44.3041 42.0287 43.7637 42.076 43.199C42.116 42.7237 41.8517 42.2736 41.6756 41.8305C41.4703 41.3137 41.3153 40.817 40.8345 40.4633L41.7698 41.1513C43.137 42.1571 45.0608 41.8641 46.0666 40.4968C46.4057 40.0374 46.6094 39.4922 46.6546 38.923C46.7116 38.2084 46.3248 37.5149 45.9011 36.9207C45.7118 36.6556 45.4815 36.4223 45.219 36.2295L44.4768 35.5122C45.4439 36.2235 46.6892 36.2851 47.6913 35.7764C48.1191 35.5592 48.4898 35.2444 48.7735 34.8575C49.7793 33.4903 48.5208 31.7136 47.1536 30.7078L45.0675 29.1733L47.8268 25.4224C51.8459 19.9588 50.8219 13.2369 45.3584 9.21775Z" fill="#FED2A4"/>
<path d="M20.8405 13.9403L24.5733 16.6864L24.5947 16.6571L44.3962 31.2513L46.4822 32.7858C47.4492 33.4971 47.8781 34.6676 47.6909 35.7757C48.1187 35.5587 48.4895 35.2442 48.7734 34.8575C49.7792 33.4903 49.4862 31.5666 48.1189 30.5608L46.0329 29.0263L47.8267 25.4224C51.8458 19.9588 50.8219 13.2369 45.3583 9.21776L45.3582 9.21778C39.8947 5.19862 33.1728 6.22255 29.1537 11.6862L26.2607 14.4537L26.2315 14.4322L26.21 14.4614L22.4772 11.7154C17.0136 7.69623 9.32628 8.86722 5.30714 14.3309C5.03389 14.7027 4.78159 15.0895 4.55141 15.4894C8.73807 10.9563 15.7531 10.1979 20.8405 13.9403Z" fill="#FFBD86"/>
<path d="M47.8266 25.4224C51.8456 19.9588 51.7871 13.0899 46.3236 9.07071C43.1666 6.74836 39.12 5.19353 35.6148 6.1637C33.0538 6.87268 30.7033 8.41424 29.0065 10.7208L26.2606 14.4537L26.2313 14.4322L46.0327 29.0263L47.8266 25.4224Z" fill="#F6A96C"/>
<path d="M46.1765 8.10528C43.0195 5.78293 39.1199 5.19352 35.6148 6.16378C38.2707 6.07798 40.9736 6.84967 43.2802 8.54646C48.7437 12.5656 49.9147 20.2529 45.8957 25.7165L44.365 27.7972L46.0327 29.0263L48.792 25.2753C52.811 19.8117 51.64 12.1244 46.1765 8.10528Z" fill="#EA9B58"/>
<path d="M20.9816 24.0608C20.3299 23.5814 20.1902 22.6646 20.6696 22.0129L26.0378 14.7152C27.0436 13.348 28.9673 13.055 30.3346 14.0607C31.7019 15.0665 31.9949 16.9903 30.9891 18.3575L27.5271 23.0638C25.9949 25.1466 23.0644 25.593 20.9816 24.0608Z" fill="#F6A96C"/>
<path d="M37.252 45.4563L34.5517 43.47C34.3952 43.3549 34.1994 43.3067 34.0074 43.336C33.8154 43.3652 33.6428 43.4695 33.5277 43.626C33.4707 43.7035 33.4295 43.7914 33.4065 43.8848C33.3835 43.9782 33.3791 44.0752 33.3936 44.1703C33.408 44.2654 33.4411 44.3567 33.4909 44.439C33.5407 44.5213 33.6062 44.5929 33.6837 44.6499L37.4985 47.4562C37.5827 46.4285 37.1483 45.3824 36.2568 44.7266L37.1921 45.4146C37.2118 45.4291 37.232 45.4424 37.252 45.4563Z" fill="#FFBD86"/>
<path d="M32.9024 35.5419C32.7873 35.6983 32.7391 35.8941 32.7683 36.0861C32.7976 36.2782 32.9019 36.4507 33.0584 36.5658L42.0755 43.1991C42.1585 42.2096 41.7602 41.2028 40.9363 40.5425L33.9264 35.3859C33.8489 35.3289 33.761 35.2877 33.6676 35.2647C33.5742 35.2417 33.4772 35.2373 33.3821 35.2518C33.287 35.2663 33.1957 35.2993 33.1134 35.3491C33.0311 35.3989 32.9594 35.4644 32.9024 35.5419Z" fill="#FFBD86"/>
<path d="M37.3941 30.2927C37.2376 30.1776 37.0419 30.1294 36.8498 30.1587C36.6578 30.1879 36.4853 30.2922 36.3702 30.4487C36.3132 30.5262 36.272 30.6141 36.2489 30.7075C36.2259 30.8009 36.2215 30.8979 36.236 30.993C36.2505 31.0881 36.2836 31.1794 36.3334 31.2617C36.3831 31.344 36.4487 31.4157 36.5262 31.4726L46.6541 38.923C46.7359 37.8974 46.3016 36.8545 45.4119 36.2001L44.4768 35.5122C44.5319 35.5524 44.5882 35.5907 44.6458 35.6272L37.3941 30.2927Z" fill="#FFBD86"/>
<path d="M11.7439 40.4981C10.3765 39.4924 10.0835 37.5687 11.0894 36.2014L14.1841 31.9944C15.1899 30.6271 17.1136 30.3341 18.4809 31.3398C19.8481 32.3456 20.1412 34.2694 19.1354 35.6366L16.0406 39.8436C15.0348 41.211 13.1111 41.504 11.7439 40.4981Z" fill="#F6A96C"/>
<path d="M16.0073 45.0757C14.64 44.0699 14.347 42.1462 15.3527 40.779L19.1355 35.6366C20.1413 34.2693 22.065 33.9762 23.4323 34.9821C24.7996 35.9879 25.0926 37.9116 24.0868 39.2788L20.304 44.4212C19.2982 45.7884 17.3745 46.0814 16.0073 45.0757Z" fill="#F6A96C"/>
<path d="M21.6467 47.7826C20.2794 46.7768 19.9863 44.8531 20.9922 43.4859L24.0869 39.2788C25.0927 37.9116 27.0165 37.6185 28.3837 38.6243C29.751 39.6301 30.044 41.5539 29.0382 42.9211L25.9434 47.1281C24.9377 48.4954 23.014 48.7885 21.6467 47.7826Z" fill="#F6A96C"/>
<path d="M27.2858 50.4896C25.9186 49.4838 25.6255 47.5601 26.6313 46.1928L29.0381 42.9211C30.0439 41.5539 31.9676 41.2608 33.3348 42.2666C34.7021 43.2724 34.9951 45.1961 33.9893 46.5633L31.5826 49.8351C30.5768 51.2024 28.6531 51.4954 27.2858 50.4896Z" fill="#F6A96C"/>
</g>
</g>
<defs>
<clipPath id="clip0_275_1269">
<rect width="50" height="50" fill="white" transform="translate(0 8.24017) rotate(-8.66117)"/>
</clipPath>
</defs>
</svg>
