<svg width="64" height="64" viewBox="0 0 64 64" fill="none" xmlns="http://www.w3.org/2000/svg">
<g clip-path="url(#clip0_275_1345)">
<path d="M39.3498 45.1998C40.0107 45.4474 40.6883 45.6478 41.3775 45.7997C44.4986 46.4883 47.5781 46.1335 50.2027 44.9927C50.7211 44.7673 50.8617 44.1012 50.486 43.6789C48.7564 41.7348 46.4123 40.2222 43.6545 39.4474L38.9245 41.7094L39.3498 45.1998Z" fill="#CCF49F"/>
<path d="M33.1513 47.2327C32.7654 47.8236 32.3381 48.3865 31.8727 48.917C29.7657 51.3203 27.0743 52.8583 24.2838 53.4935C23.7327 53.6189 23.2249 53.1654 23.2775 52.6027C23.5197 50.0118 24.5127 47.4048 26.2759 45.1471L31.4267 44.1684L33.1513 47.2327Z" fill="#95D6A4"/>
<path d="M7.81195 28.2852C7.68579 28.3018 7.56516 28.3473 7.45942 28.4181C7.35369 28.4889 7.26569 28.5831 7.20226 28.6934C7.13883 28.8037 7.10168 28.9271 7.09369 29.0541C7.0857 29.1811 7.10709 29.3083 7.15619 29.4257C8.70618 33.1958 11.5478 36.5743 15.4824 38.8367C19.7516 41.2915 24.5091 41.9732 28.8274 41.128C27.3856 36.9705 24.4032 33.2018 20.134 30.747C16.1994 28.4844 11.85 27.7281 7.81195 28.2852Z" fill="#FF8086"/>
<path d="M20.345 36.166C16.0709 35.2921 11.8711 35.8596 8.30349 37.503L8.26027 38.5219C10.918 41.6127 14.0986 43.7461 18.5453 44.6553C23.37 45.6418 28.0309 45.4451 31.8637 43.2837C29.1868 39.7914 25.1698 37.1527 20.345 36.166Z" fill="#FF9A9F"/>
<path d="M19.2733 43.9722C14.7625 43.05 10.967 40.661 8.30328 37.5031C8.15936 37.5694 8.01599 37.6377 7.87421 37.7074C7.75968 37.7629 7.65948 37.844 7.58138 37.9445C7.50329 38.045 7.44941 38.1621 7.42392 38.2868C7.39843 38.4114 7.40202 38.5403 7.43442 38.6634C7.46681 38.7864 7.52714 38.9004 7.61071 38.9963C10.2684 42.0871 14.0288 44.3997 18.4755 45.3089C23.3003 46.2954 28.0307 45.4452 31.8636 43.2838C31.6909 43.0585 31.4974 42.8474 31.3137 42.6294C27.7456 44.2733 23.5481 44.8462 19.2733 43.9722Z" fill="#FF8086"/>
<path d="M48.4912 14.9432C44.9077 16.8859 41.8511 20.0713 40.0206 24.2244C38.0345 28.7308 37.8636 33.5339 39.164 37.7376L50.1553 21.9564C50.3766 19.7394 50.2103 17.5448 49.6951 15.4736C49.6651 15.35 49.607 15.2349 49.5254 15.1373C49.4437 15.0397 49.3406 14.9623 49.2242 14.911C49.1078 14.8597 48.9811 14.8359 48.854 14.8415C48.7268 14.8471 48.6027 14.8819 48.4912 14.9432Z" fill="#FFB9B9"/>
<path d="M48.5599 27.9879C49.4314 26.0106 49.9537 23.9723 50.1553 21.9564C47.014 23.1362 44.1467 25.0782 41.8481 27.6197C40.4035 29.217 39.2395 31.004 38.3474 32.9007C38.4105 34.564 38.6858 36.1917 39.164 37.7375C43.1442 35.8611 46.5739 32.4942 48.5599 27.9879Z" fill="#FF9A9F"/>
<path d="M54.0212 22.5722C54.1463 22.549 54.2751 22.555 54.3975 22.5897C54.5199 22.6244 54.6327 22.6869 54.7271 22.7723C54.8215 22.8576 54.8949 22.9636 54.9417 23.0819C54.9885 23.2003 55.0073 23.3278 54.9968 23.4546C54.6859 27.5191 53.0255 31.6096 49.981 34.9756C46.6777 38.628 42.3627 40.7445 37.9942 41.273C38.0828 36.8736 39.7567 32.3684 43.0601 28.716C46.1046 25.3499 50.0083 23.2884 54.0212 22.5722ZM26.1151 11.8908L25.1314 11.9881C22.1137 16.4294 20.7179 21.2759 22.1954 25.7808L31.9551 33.1743L35.7866 21.2171C34.3766 16.9179 30.8351 13.7302 26.1151 11.8908Z" fill="#FFB9B9"/>
<path d="M23.1576 25.3173C21.8829 20.8717 23.1 16.1345 26.1152 11.8909C25.889 11.8027 25.6629 11.7142 25.4314 11.6323C25.0838 11.5093 24.686 11.6397 24.4787 11.9447C21.4609 16.3859 20.334 21.2958 21.8115 25.8008L23.1576 25.3173Z" fill="#FF9A9F"/>
<path d="M27.676 25.7576C24.1733 22.2538 19.6321 20.4639 14.9533 20.2873L13.8878 21.0544C14.2134 25.278 16.0438 29.3261 18.9897 32.5363L27.3093 34.6981L27.6761 25.7576L27.676 25.7576Z" fill="#FF9A9F"/>
<path d="M19.877 32.3426C16.8035 28.9935 15.1759 24.7078 14.9535 20.2872C14.669 20.2765 14.3843 20.2717 14.0996 20.2728C13.6362 20.2747 13.2631 20.6792 13.2988 21.1414C13.6244 25.365 15.2502 29.415 18.196 32.6251L19.877 32.3426Z" fill="#FF8086"/>
<path d="M31.1689 24.6121L31.1688 24.612C31.9614 19.4168 34.8375 15.0836 38.86 12.152C39.2345 11.879 39.7747 11.9841 40.0196 12.3775C41.8213 15.2711 42.8781 18.5726 42.9761 22.0086L36.7595 31.5986L31.1689 24.6121Z" fill="#FF9A9F"/>
<path d="M35.1406 29.5754L36.7595 31.5986L42.875 24.531C42.9663 23.6935 43.0001 22.8507 42.9762 22.0086C39.6161 23.7493 36.8942 26.3572 35.1406 29.5754Z" fill="#FF8086"/>
<path d="M30.0174 23.4887L28.8476 23.7105C25.8298 28.1516 25.0595 32.9729 26.537 37.4778L35.746 44.733L39.5775 32.7757C38.1785 28.5099 34.6825 25.3346 30.0174 23.4887Z" fill="#FF8086"/>
<path d="M27.0114 37.3161C25.6309 32.7677 26.8841 27.8701 30.0174 23.4886C29.7542 23.3845 29.489 23.2852 29.2222 23.1907C28.8745 23.0677 28.4767 23.1982 28.2695 23.5032C25.2517 27.9443 24.1247 32.8542 25.6023 37.3592L27.0114 37.3161Z" fill="#E5646E"/>
<path d="M31.7144 45.5072C32.6928 48.4905 34.8478 50.8029 37.6227 52.2378C38.0136 52.44 38.5086 52.2777 38.7039 51.8832C40.0899 49.0836 40.4568 45.9442 39.4783 42.9608L31.7144 45.5072Z" fill="#B3E59F"/>
<path d="M46.4596 22.2871C46.8817 22.1469 47.3498 22.3839 47.4869 22.8069C48.9008 27.1722 48.7423 31.8474 46.6407 36.0004C44.4171 40.3944 40.4341 43.382 35.7461 44.733C34.0582 40.1555 34.1066 35.1768 36.3301 30.7827C38.4318 26.6297 42.105 23.733 46.4596 22.2871Z" fill="#FF9A9F"/>
<path d="M13.8199 32.9922C13.3968 33.1292 13.16 33.5973 13.3001 34.0194C14.7461 38.3741 17.6427 42.0473 21.7957 44.1489C26.1897 46.3725 31.1685 46.4208 35.746 44.733C34.395 40.0449 31.4074 36.0619 27.0133 33.8384C22.8603 31.7367 18.1851 31.5781 13.8199 32.9922Z" fill="#E5646E"/>
</g>
<defs>
<clipPath id="clip0_275_1345">
<rect width="50" height="50" fill="white" transform="translate(0 16) rotate(-18.1584)"/>
</clipPath>
</defs>
</svg>
