<svg width="34" height="34" viewBox="0 0 34 34" fill="none" xmlns="http://www.w3.org/2000/svg">
<path d="M18.0646 3.69196V6.8859L24.4525 5.28889L18.0646 3.69196Z" fill="#E5646E"/>
<path d="M19.6616 4.09119L18.0646 3.69196V6.8859L19.6616 6.4866V4.09119Z" fill="#DB4655"/>
<path d="M1.56262 30.8403L10.144 16.7063C10.2748 16.4908 10.4778 16.3288 10.7168 16.249C10.9559 16.1691 11.2155 16.1767 11.4495 16.2703L12.4414 16.6671C12.6743 16.7603 12.9327 16.7682 13.171 16.6894C13.4092 16.6107 13.612 16.4503 13.7435 16.2366L17.1092 10.7673C17.2309 10.5695 17.414 10.4169 17.6305 10.3328C17.847 10.2488 18.085 10.2378 18.3084 10.3016L20.6306 10.9651C21.033 11.0801 21.3742 11.3484 21.5808 11.7124L32.4372 30.8404" fill="#C38C66"/>
<path d="M17.1093 10.7673L13.7435 16.2366C13.612 16.4503 13.4093 16.6107 13.171 16.6894C12.9328 16.7682 12.6744 16.7603 12.4414 16.6671L11.4495 16.2703C11.2155 16.1767 10.9559 16.1692 10.7169 16.249C10.4778 16.3288 10.2748 16.4909 10.144 16.7063L1.56262 30.8403H7.7473L18.2645 10.2965C17.8185 10.1892 17.3514 10.3737 17.1093 10.7673Z" fill="#B57F5F"/>
<path d="M10.9918 22.0663C11.3721 22.5046 12.0334 22.5575 12.4786 22.1853L16.7773 18.5918C16.9462 18.4506 17.1547 18.3653 17.3742 18.3475C17.5936 18.3297 17.8132 18.3804 18.0026 18.4926L21.1918 20.3813C21.3996 20.5045 21.6432 20.5532 21.8824 20.5196C22.1217 20.4859 22.3424 20.3719 22.5083 20.1963L22.8367 19.8485C23.0049 19.6704 23.2294 19.5557 23.4723 19.5239C23.7152 19.492 23.9616 19.5449 24.1701 19.6737L27.1309 21.491L21.5808 11.7123C21.3743 11.3484 21.0331 11.0801 20.6307 10.9651L18.3084 10.3015C18.0851 10.2377 17.847 10.2487 17.6305 10.3328C17.414 10.4168 17.2309 10.5694 17.1092 10.7672L13.7435 16.2365C13.612 16.4502 13.4092 16.6106 13.171 16.6894C12.9328 16.7682 12.6744 16.7602 12.4414 16.667L11.4495 16.2703C11.2155 16.1767 10.9559 16.1691 10.7169 16.2489C10.4778 16.3288 10.2749 16.4908 10.1441 16.7062L8.59814 19.2525L10.9918 22.0663Z" fill="#DBEAFF"/>
<path d="M18.2646 10.2965C17.8186 10.1891 17.3515 10.3737 17.1092 10.7673L13.7435 16.2366C13.612 16.4503 13.4092 16.6107 13.171 16.6894C12.9328 16.7682 12.6744 16.7603 12.4414 16.6671L11.4495 16.2703C11.2155 16.1767 10.9559 16.1691 10.7169 16.249C10.4778 16.3288 10.2749 16.4908 10.1441 16.7062L8.59814 19.2525L10.9918 22.0662C11.3022 22.424 11.6271 22.4898 12.0416 22.3125L18.2646 10.2965Z" fill="#C3DDFF"/>
<path d="M33.502 30.3423H32.7273L22.014 11.4665C21.7414 10.9861 21.2987 10.6379 20.7676 10.4862L18.5627 9.85621V7.27473L24.5732 5.77209C24.681 5.7452 24.7767 5.68303 24.8451 5.59548C24.9135 5.50793 24.9507 5.40002 24.9507 5.28892C24.9507 5.17782 24.9135 5.06991 24.8451 4.98236C24.7767 4.8948 24.681 4.83264 24.5732 4.80575L18.5627 3.30311V3.15967C18.5627 3.02758 18.5102 2.9009 18.4168 2.8075C18.3234 2.71409 18.1967 2.66162 18.0646 2.66162C17.9325 2.66162 17.8059 2.71409 17.7125 2.8075C17.6191 2.9009 17.5666 3.02758 17.5666 3.15967V9.83004C17.2084 9.93802 16.8903 10.1728 16.6851 10.5063L13.3194 15.9756C13.2496 16.0895 13.1417 16.175 13.0148 16.217C12.888 16.2589 12.7504 16.2546 12.6264 16.2047L11.6344 15.8079C11.2911 15.6696 10.9097 15.658 10.5586 15.7752C10.2075 15.8925 9.90957 16.131 9.71829 16.4479L1.28244 30.3423H0.498047C0.365957 30.3423 0.239276 30.3947 0.145875 30.4881C0.0524726 30.5815 0 30.7082 0 30.8403C0 30.9724 0.0524726 31.0991 0.145875 31.1925C0.239276 31.2859 0.365957 31.3384 0.498047 31.3384H33.502C33.634 31.3384 33.7607 31.2859 33.8541 31.1925C33.9475 31.0991 34 30.9724 34 30.8403C34 30.7082 33.9475 30.5815 33.8541 30.4881C33.7607 30.3947 33.634 30.3423 33.502 30.3423ZM23.5336 30.3423L20.9237 20.8014L20.938 20.8098C21.5707 21.1846 22.3654 21.0729 22.8704 20.5382L23.1988 20.1904C23.3824 19.996 23.6809 19.9568 23.9084 20.0974L26.7702 21.8644L31.5819 30.3423H23.5336ZM22.399 5.28898L18.5627 6.24802V4.32988L22.399 5.28898ZM8.64955 20.1275L10.6156 22.3927C10.7076 22.4988 10.8138 22.5918 10.9311 22.6692L8.27913 28.4879C8.22435 28.6081 8.21956 28.7452 8.26581 28.8689C8.31207 28.9926 8.40557 29.0929 8.52577 29.1477C8.59049 29.1773 8.66084 29.1927 8.73202 29.1927C8.82763 29.1928 8.92123 29.1653 9.00165 29.1136C9.08206 29.0618 9.14589 28.9881 9.18551 28.9011L11.91 22.9234C12.2266 22.9011 12.5387 22.7842 12.7981 22.5674L13.2696 22.1732C13.3198 22.1312 13.3612 22.0798 13.3916 22.0219C13.4219 21.9639 13.4405 21.9005 13.4463 21.8354C13.4521 21.7702 13.445 21.7046 13.4255 21.6422C13.4059 21.5798 13.3743 21.5218 13.3323 21.4716C13.2904 21.4214 13.239 21.38 13.181 21.3497C13.1231 21.3194 13.0597 21.3008 12.9946 21.295C12.9294 21.2891 12.8638 21.2962 12.8014 21.3158C12.7389 21.3353 12.681 21.367 12.6308 21.4089L12.1593 21.8031C11.9239 21.9999 11.569 21.9714 11.3679 21.7398L9.19242 19.2333L10.5697 16.9647C10.6391 16.8498 10.7471 16.7634 10.8744 16.7208C11.0017 16.6783 11.14 16.6825 11.2645 16.7327L12.2565 17.1295C12.5984 17.2669 12.9779 17.2788 13.3277 17.1632C13.6775 17.0475 13.9751 16.8117 14.1677 16.4976L17.5334 11.0283C17.5984 10.9232 17.6958 10.8422 17.811 10.7975C17.9262 10.7528 18.0527 10.7468 18.1716 10.7804L20.4939 11.444C20.7711 11.5225 21.0061 11.7073 21.1477 11.9582L25.7473 20.0621L24.4318 19.2498C23.8043 18.8624 22.9811 18.9703 22.4747 19.5065L22.1462 19.8543C22.0582 19.9482 21.9407 20.0093 21.8133 20.0272C21.6858 20.0451 21.556 20.0188 21.4456 19.9527L18.2564 18.064C17.6877 17.7272 16.9649 17.7858 16.4579 18.2096L14.2759 20.0337C14.1745 20.1184 14.111 20.2399 14.0993 20.3715C14.0875 20.503 14.1285 20.6339 14.2132 20.7352C14.2551 20.7854 14.3066 20.8268 14.3645 20.8571C14.4225 20.8874 14.4858 20.906 14.551 20.9119C14.6161 20.9177 14.6818 20.9106 14.7442 20.8911C14.8066 20.8715 14.8645 20.8398 14.9147 20.7979L17.0968 18.9739C17.1867 18.8988 17.2977 18.8535 17.4144 18.844C17.5311 18.8346 17.648 18.8615 17.7488 18.9211L19.6913 20.0715L22.501 30.3423H2.44773L8.64955 20.1275Z" fill="black"/>
</svg>
