<svg width="30" height="30" viewBox="0 0 30 30" fill="none" xmlns="http://www.w3.org/2000/svg">
<g clip-path="url(#clip0_275_1602)">
<path d="M22.1995 21.9404C21.9736 22.1722 21.7403 22.3965 21.4998 22.6131C21.2832 22.8535 21.0589 23.0869 20.8271 23.3128L26.4135 28.8991C26.7567 29.2424 27.2062 29.4141 27.6562 29.4141C27.8437 29.4141 28.0311 29.3838 28.2108 29.3241C28.4136 28.713 28.2722 28.0128 27.7858 27.5267L22.1995 21.9404Z" fill="#4DBBEB"/>
<path d="M20.7551 23.2406C21.0263 23.0266 21.2899 22.8032 21.5456 22.5709C21.7779 22.3152 22.0013 22.0516 22.2153 21.7804L19.8013 19.3663C19.5644 19.6164 19.3163 19.8555 19.0577 20.083C18.8303 20.3417 18.5912 20.5898 18.3411 20.8266L20.7551 23.2406Z" fill="#FFF5CD"/>
<path d="M13.2422 0.690552C7.82156 1.43581 3.63281 6.09676 3.63281 11.7188C3.63281 17.3414 7.8225 22.0029 13.2438 22.7472C15.094 22.4925 16.8011 21.7816 18.2467 20.7317C19.2005 20.0392 20.0392 19.2006 20.7316 18.2467C22.0646 16.4115 22.8516 14.155 22.8516 11.7188C22.8516 6.0967 18.6628 1.43581 13.2422 0.690552Z" fill="#4DBBEB"/>
<path d="M11.7188 2.92969C16.565 2.92969 20.5078 6.87246 20.5078 11.7188C20.5078 16.565 16.565 20.5078 11.7188 20.5078C6.87246 20.5078 2.92969 16.565 2.92969 11.7188C2.92969 6.87246 6.87246 2.92969 11.7188 2.92969Z" fill="white"/>
<path d="M13.1836 3.05237C9.03211 3.75174 5.85938 7.37161 5.85938 11.7187C5.85938 16.0659 9.03211 19.6857 13.1836 20.3851C17.3351 19.6857 20.5078 16.0659 20.5078 11.7187C20.5078 7.37161 17.3351 3.7518 13.1836 3.05237Z" fill="#BEE7F4"/>
<path d="M29.3133 25.9992L21.4922 18.1781C22.7664 16.2588 23.4375 14.0364 23.4375 11.7188C23.4375 5.25697 18.1805 0 11.7188 0C5.25697 0 0 5.25697 0 11.7188C0 18.1805 5.25697 23.4375 11.7188 23.4375C14.0364 23.4375 16.2588 22.7664 18.178 21.4922L20.3398 23.654C20.3402 23.6543 20.3405 23.6547 20.3407 23.6552L25.9991 29.3133C26.4421 29.7563 27.0305 30 27.6562 30C28.282 30 28.8705 29.7563 29.3131 29.3136C29.756 28.8709 30 28.2825 30 27.6562C30 27.03 29.756 26.4416 29.3133 25.9992ZM19.1318 20.7887C19.7379 20.2929 20.2929 19.7379 20.7887 19.1318L22.451 20.7941C21.9452 21.391 21.3911 21.9452 20.7942 22.451L19.1318 20.7887ZM1.17188 11.7188C1.17188 5.90309 5.90309 1.17188 11.7188 1.17188C17.5344 1.17188 22.2656 5.90309 22.2656 11.7188C22.2656 13.9556 21.5712 16.0938 20.2574 17.9024C19.6015 18.8067 18.8067 19.6015 17.9024 20.2574V20.2576C16.0938 21.5712 13.9556 22.2656 11.7188 22.2656C5.90309 22.2656 1.17188 17.5344 1.17188 11.7188ZM28.4848 28.4848C28.2633 28.7061 27.9691 28.8281 27.6562 28.8281C27.3434 28.8281 27.0492 28.7061 26.8277 28.4848L21.625 23.2819C22.2185 22.7724 22.7724 22.2185 23.2819 21.625L28.4848 26.8279C28.7061 27.0493 28.8281 27.3431 28.8281 27.6562C28.8281 27.9694 28.7061 28.2633 28.4848 28.4848Z" fill="black"/>
<path d="M21.0938 11.7188C21.0938 6.5492 16.8883 2.34375 11.7188 2.34375C6.5492 2.34375 2.34375 6.5492 2.34375 11.7188C2.34375 16.8883 6.5492 21.0938 11.7188 21.0938C16.8883 21.0938 21.0938 16.8883 21.0938 11.7188ZM11.7188 19.9219C7.19561 19.9219 3.51562 16.2419 3.51562 11.7188C3.51562 7.19561 7.19561 3.51562 11.7188 3.51562C16.2419 3.51562 19.9219 7.19561 19.9219 11.7188C19.9219 16.2419 16.2419 19.9219 11.7188 19.9219Z" fill="black"/>
<path d="M17.9482 9.9607C18.2504 9.84469 18.4011 9.50566 18.2851 9.20356C17.7804 7.89023 16.902 6.76758 15.7443 5.95664C14.5594 5.12625 13.1674 4.6875 11.7188 4.6875C11.3951 4.6875 11.1328 4.94982 11.1328 5.27344C11.1328 5.59705 11.3951 5.85938 11.7188 5.85938C14.1268 5.85938 16.3262 7.37203 17.1911 9.62379C17.2337 9.73443 17.3087 9.82958 17.4064 9.89671C17.5041 9.96384 17.6198 9.9998 17.7384 9.99984C17.8101 9.99979 17.8813 9.98653 17.9482 9.9607ZM18.1641 11.1328C17.8406 11.1328 17.5781 11.3953 17.5781 11.7188C17.5781 12.0422 17.8406 12.3047 18.1641 12.3047C18.4875 12.3047 18.75 12.0422 18.75 11.7188C18.75 11.3953 18.4875 11.1328 18.1641 11.1328Z" fill="black"/>
</g>
<defs>
<clipPath id="clip0_275_1602">
<rect width="30" height="30" fill="white"/>
</clipPath>
</defs>
</svg>
