<svg width="34" height="34" viewBox="0 0 34 34" fill="none" xmlns="http://www.w3.org/2000/svg">
<g clip-path="url(#clip0_275_1504)">
<mask id="mask0_275_1504" style="mask-type:luminance" maskUnits="userSpaceOnUse" x="0" y="0" width="34" height="34">
<path d="M0 9.91821e-05H33.9999V34H0V9.91821e-05Z" fill="white"/>
</mask>
<g mask="url(#mask0_275_1504)">
<path d="M24.8672 31.7734V27.9805L25.1436 27.8418L28.708 26.0605C31.2379 24.7952 32.8359 22.2085 32.8359 19.3799V10.3594C32.8359 9.53521 32.1679 8.86721 31.3438 8.86719C30.5196 8.86719 29.8516 9.5352 29.8516 10.3594V17.1572L29.1846 16.9209C28.6576 16.734 28.0498 16.8565 27.6328 17.2734L26.1406 18.7637C25.3214 19.5829 24.1013 20.0942 23.1396 20.3994C22.6498 20.5549 22.2077 20.6632 21.8877 20.7324C21.7275 20.767 21.5972 20.792 21.5059 20.8086C21.4602 20.8169 21.4243 20.823 21.3994 20.8271C21.3967 20.8276 21.3941 20.8287 21.3916 20.8291L21.373 20.834L21.3301 20.8379C19.9098 20.9804 18.8281 22.1766 18.8281 23.6045V31.7734H24.8672ZM21.3711 20.832C21.3675 20.8326 21.3655 20.8328 21.3643 20.833C21.364 20.833 21.3652 20.8332 21.3662 20.833C21.3671 20.8329 21.3689 20.8324 21.3711 20.832Z" fill="#FCE8D0" stroke="black"/>
<path d="M16.9993 17.669C19.7698 15.2749 21.8907 13.5533 23.3528 11.9503C24.849 10.3097 25.5862 8.86252 25.5862 7.03912C25.5862 6.14752 25.2933 4.92449 24.5901 3.93756C23.9013 2.97101 22.8191 2.22662 21.1799 2.22662C19.2388 2.22681 18.1293 3.63102 17.4387 4.89459L17.0002 5.69733L16.5618 4.89459C15.8711 3.63092 14.7609 2.22662 12.8196 2.22662C11.1805 2.22669 10.0992 2.97105 9.4104 3.93756C8.7071 4.92452 8.41431 6.14746 8.41431 7.03912C8.41431 8.8626 9.15137 10.3096 10.6477 11.9503C12.1096 13.5531 14.2292 15.2753 16.9993 17.669Z" fill="#FF7B79" stroke="black"/>
<path d="M15.1719 31.7734V23.6045C15.1719 22.1766 14.0902 20.9804 12.6699 20.8379L12.6279 20.834L12.6055 20.8281C12.6028 20.8277 12.5997 20.8267 12.5967 20.8262C12.5717 20.8218 12.5358 20.8153 12.4902 20.8066C12.3984 20.7893 12.2666 20.7633 12.1055 20.7275C11.7837 20.6561 11.3397 20.5458 10.8486 20.3887C9.88559 20.0805 8.66449 19.5687 7.85938 18.7637L6.36719 17.2734C5.95012 16.8564 5.34226 16.7341 4.81543 16.9209L4.14844 17.1572V10.3594C4.1484 9.5352 3.48043 8.86719 2.65625 8.86719C1.83207 8.86719 1.1641 9.5352 1.16406 10.3594V19.3799L1.16895 19.6445C1.2651 22.3691 2.84113 24.8347 5.29199 26.0605L8.85645 27.8418L9.13281 27.9805V31.7734H15.1719ZM12.626 20.8311C12.6243 20.8308 12.6222 20.8304 12.6201 20.8301L12.6318 20.833H12.6328C12.6312 20.8327 12.6297 20.8317 12.626 20.8311Z" fill="#FCE8D0" stroke="black"/>
<path d="M31.1445 25.5C31.1445 25.8667 30.8472 26.1641 30.4805 26.1641C30.1138 26.1641 29.8164 25.8667 29.8164 25.5C29.8164 25.1333 30.1138 24.8359 30.4805 24.8359C30.8472 24.8359 31.1445 25.1333 31.1445 25.5Z" fill="black"/>
</g>
</g>
<defs>
<clipPath id="clip0_275_1504">
<rect width="34" height="34" fill="white"/>
</clipPath>
</defs>
</svg>
