<svg width="32" height="34" viewBox="0 0 32 34" fill="none" xmlns="http://www.w3.org/2000/svg">
<path d="M22.1899 15.5488C21.8645 14.8698 22.1292 14.0444 22.781 13.7054C23.4329 13.3665 24.2251 13.6422 24.5505 14.3212L27.0087 19.4507L28.5557 22.679C29.5944 24.8464 28.7498 27.4805 26.6692 28.5625L24.7945 29.5374C23.4867 30.2175 22.0021 30.1221 20.8217 29.4192C19.2946 28.5098 17.6692 27.7923 16.0008 27.2117L14.0375 26.5286C13.2289 26.2472 12.7986 25.3256 13.0927 24.4857C13.3762 23.6762 14.2447 23.2662 15.0293 23.5392L17.3935 24.3619C17.4886 24.3949 17.5747 24.2918 17.5299 24.1983L14.2846 17.4262C13.9592 16.7472 14.2238 15.9218 14.8757 15.5829C15.4316 15.2937 16.0894 15.452 16.4729 15.926L16.0633 15.0713C15.7378 14.3923 16.0025 13.567 16.6544 13.228C17.3062 12.889 18.0985 13.1647 18.4239 13.8437L18.9724 14.9883C18.647 14.3093 18.9117 13.484 19.5635 13.145C20.2153 12.806 21.0076 13.0817 21.333 13.7607L22.1899 15.5488Z" fill="#FED2A4"/>
<path d="M16.4254 15.1416C16.3458 14.4064 16.4583 13.6698 16.7382 13C16.1515 13.3833 15.9316 14.1532 16.2523 14.7952L16.4254 15.1416ZM22.3035 27.5138L16.8583 16.6135C16.6767 16.2497 16.547 15.8623 16.4733 15.4625C16.0613 15.1444 15.4884 15.0683 14.9914 15.3162C14.2993 15.6615 14.0183 16.5021 14.3638 17.1937L17.8094 24.0911C17.8569 24.1862 17.7655 24.2913 17.6646 24.2576L15.1545 23.4197C14.3216 23.1417 13.3994 23.5593 13.0984 24.3838C12.7862 25.2392 13.243 26.1778 14.1015 26.4644L16.1859 27.1602C17.9573 27.7515 19.6829 28.4823 21.3043 29.4085C22.4028 30.036 23.7492 30.188 25 29.7497C23.8683 29.427 22.8706 28.649 22.3035 27.5138Z" fill="#FFBD86"/>
<path d="M30.0351 29.932L23.9381 32.8252C23.0768 33.2339 22.03 32.9015 21.6001 32.0828L21.1839 31.2904C20.7539 30.4718 21.1036 29.4767 21.9649 29.068L28.0619 26.1748C28.9232 25.7661 29.97 26.0985 30.3999 26.9172L30.8161 27.7096C31.2461 28.5283 30.8964 29.5233 30.0351 29.932Z" fill="#FD5C6F"/>
<path d="M14.14 14.0625C13.7147 14.6208 12.953 14.6992 12.4385 14.2377C11.9241 13.776 11.8519 12.9493 12.2771 12.3909L15.4898 8.1734L17.5118 5.5191C18.8692 3.73705 21.3008 3.48673 22.9427 4.96009L24.4222 6.28761C25.4543 7.21371 25.9284 8.6003 25.801 9.94512C25.6364 11.6851 25.6624 13.44 25.8146 15.1813L25.9937 17.2303C26.0674 18.0743 25.486 18.8217 24.7016 18.8789C23.9455 18.9341 23.2935 18.3029 23.222 17.4841L23.0063 15.0167C22.9977 14.9174 22.8828 14.8791 22.8242 14.9559L18.5827 20.5241C18.1573 21.0824 17.3955 21.1608 16.8811 20.6992C16.4424 20.3055 16.3256 19.6463 16.5644 19.1144L16.0291 19.8173C15.6037 20.3756 14.8419 20.454 14.3275 19.9924C13.8131 19.5308 13.7409 18.704 14.1661 18.1457L14.883 17.2044C14.4577 17.7627 13.6959 17.8411 13.1815 17.3795C12.667 16.9179 12.5948 16.0911 13.0201 15.5328L14.14 14.0625Z" fill="#FFDDCF"/>
<path d="M13.2329 17C13.345 16.3794 13.5966 15.7795 13.9929 15.2577L20.449 6.75841C21.1094 5.88905 22.0414 5.4091 23 5.34174L22.5395 4.92732C20.958 3.50425 18.6161 3.74602 17.3087 5.46726L15.3612 8.03103L12.2669 12.1046C11.8573 12.6439 11.9269 13.4425 12.4224 13.8883C12.9179 14.3341 13.6516 14.2584 14.0612 13.7191L12.9825 15.1393C12.5729 15.6786 12.6425 16.4772 13.138 16.923C13.1687 16.9507 13.2004 16.9764 13.2329 17Z" fill="#FFCBBE"/>
<path d="M23.3249 1.42095L28.39 5.99347C29.1056 6.63938 29.2061 7.79645 28.6145 8.57773L28.042 9.33399C27.4504 10.1153 26.3907 10.225 25.6752 9.57911L20.61 5.00652C19.8944 4.3606 19.7939 3.20354 20.3855 2.42226L20.958 1.66599C21.5496 0.884711 22.6093 0.774968 23.3249 1.42095Z" fill="#A4E7FF"/>
<path d="M17.6273 20.3029C18.1525 19.7712 19.0242 19.7519 19.5741 20.2597C20.124 20.7675 20.144 21.6102 19.6188 22.1419L15.6512 26.1581L13.1541 28.6857C11.4777 30.3827 8.69566 30.4445 6.94045 28.8236L5.3589 27.3632C4.25556 26.3444 3.82098 24.9034 4.06658 23.5521C4.38439 21.8037 4.48654 20.025 4.44441 18.2504L4.39482 16.1621C4.37439 15.3019 5.09131 14.5912 5.98708 14.595C6.85042 14.5987 7.54394 15.2891 7.56373 16.1236L7.62346 18.6383C7.62587 18.7395 7.75357 18.7873 7.82586 18.7141L13.0641 13.4118C13.5893 12.8801 14.461 12.8607 15.0109 13.3686C15.48 13.8017 15.5632 14.4782 15.2518 14.9978L15.9129 14.3286C16.4382 13.7969 17.3098 13.7775 17.8598 14.2853C18.4097 14.7932 18.4297 15.6359 17.9044 16.1675L17.019 17.0638C17.5443 16.5321 18.4159 16.5127 18.9659 17.0206C19.5158 17.5284 19.5358 18.3711 19.0105 18.9028L17.6273 20.3029Z" fill="#DB9E82"/>
<path d="M7.71202 24.1933L16.1863 15.6022C16.7101 15.0713 17.336 14.7073 18 14.5098C17.9571 14.4521 17.9099 14.3979 17.8588 14.3477C17.3089 13.8152 16.4373 13.8355 15.9121 14.393L15.251 15.0947C15.5624 14.5499 15.4792 13.8406 15.0102 13.3864C14.4603 12.854 13.5887 12.8743 13.0635 13.4317L7.82565 18.9912C7.75337 19.0679 7.62569 19.0177 7.62328 18.9116L7.56355 16.275C7.54376 15.4 6.8503 14.6762 5.98702 14.6723C5.09132 14.6683 4.37446 15.4135 4.39488 16.3153L4.44447 18.5049C4.4866 20.3656 4.38439 22.2306 4.0666 24.0637C3.82095 25.4806 4.25557 26.9914 5.35875 28.0597L6.94017 29.5909C7.09335 29.7389 7.2568 29.8757 7.42927 30C6.05051 28.2994 6.1445 25.7824 7.71202 24.1933Z" fill="#C8866A"/>
<path d="M6.43227 32.5102L1.53572 27.7327C0.84397 27.0578 0.818842 25.9378 1.47951 25.2312L2.11898 24.5473C2.77965 23.8406 3.87598 23.8149 4.56773 24.4898L9.46428 29.2673C10.156 29.9422 10.1812 31.0622 9.52049 31.7688L8.88102 32.4527C8.22035 33.1594 7.12396 33.1851 6.43227 32.5102Z" fill="#FFB3DD"/>
<path d="M15.0245 26.4547C15.1072 26.1908 15.3748 26.0484 15.6221 26.1367L16.6333 26.4974C18.2022 27.0565 19.7386 27.7503 21.185 28.6326H21.185C21.4588 28.7996 21.7528 28.9256 22.0587 29.0072C22.3118 29.0746 22.4657 29.3482 22.4025 29.6182C22.3412 29.8797 22.0987 30.0419 21.8535 29.9905L21.8298 29.9849L21.7569 29.9647C21.3931 29.8607 21.0434 29.707 20.7163 29.5076L20.7162 29.5075C19.3342 28.6645 17.8568 27.9959 16.334 27.4532L16.3339 27.4532L15.3227 27.0924C15.0753 27.0041 14.9418 26.7187 15.0245 26.4547ZM25.3626 17.1476C25.547 16.9508 25.846 16.9508 26.0304 17.1476C26.0447 17.1628 26.0902 17.212 26.1252 17.2926L27.8041 20.8798L27.8041 20.8799L28.5381 22.4495C29.1436 23.7408 29.1329 25.1899 28.6281 26.4146C28.6277 26.4156 28.6273 26.4166 28.6269 26.4176C28.6264 26.4187 28.6261 26.4199 28.6256 26.421C28.6213 26.4314 28.6168 26.4414 28.6121 26.451C28.6116 26.4521 28.611 26.4531 28.6105 26.4542C28.5314 26.6142 28.374 26.7233 28.1926 26.7233C27.9399 26.7233 27.7336 26.5117 27.7209 26.2455L27.7203 26.2195C27.7203 26.209 27.7206 26.1981 27.7213 26.187C27.722 26.1759 27.723 26.1645 27.7244 26.153C27.7259 26.1415 27.7277 26.1299 27.73 26.1182C27.7322 26.1065 27.7349 26.0948 27.7379 26.0833C27.7409 26.0717 27.7444 26.0603 27.7481 26.0492C27.7519 26.038 27.7559 26.0271 27.7602 26.0167C27.7611 26.0147 27.7619 26.0126 27.7627 26.0106C28.1602 25.0475 28.1679 23.9122 27.6934 22.9004L27.6932 22.8999L26.959 21.3298V21.3298L25.274 17.7296C25.2506 17.6795 25.2356 17.6264 25.2287 17.5724C25.2277 17.5644 25.2269 17.5563 25.2262 17.5482C25.2259 17.5448 25.2257 17.5415 25.2255 17.5381C25.2251 17.532 25.2248 17.5258 25.2246 17.5196C25.2245 17.5161 25.2244 17.5125 25.2243 17.509C25.2242 17.4895 25.2251 17.4701 25.227 17.4507C25.2271 17.4499 25.2271 17.4491 25.2272 17.4482C25.2386 17.3384 25.2837 17.2318 25.3626 17.1476ZM27.7215 26.1936C27.7212 26.202 27.7209 26.2102 27.7209 26.2182C27.7209 26.21 27.7212 26.2018 27.7215 26.1936ZM27.7234 26.1669C27.7228 26.1733 27.7223 26.1796 27.7219 26.1858C27.7218 26.1875 27.7218 26.1891 27.7217 26.1907C27.7221 26.1828 27.7226 26.1748 27.7234 26.1669ZM27.7251 26.1519C27.7246 26.1557 27.7242 26.1595 27.7238 26.1632C27.7245 26.1564 27.7254 26.1495 27.7263 26.1426C27.7259 26.1457 27.7254 26.1488 27.7251 26.1519ZM27.7306 26.1172C27.7292 26.1241 27.7281 26.1311 27.727 26.138C27.7281 26.1308 27.7293 26.1237 27.7307 26.1165C27.7307 26.1167 27.7306 26.117 27.7306 26.1172ZM27.7356 26.0937C27.7345 26.0985 27.7334 26.1034 27.7324 26.1082C27.7334 26.1034 27.7345 26.0985 27.7356 26.0937ZM27.7385 26.0824C27.7382 26.0834 27.7379 26.0844 27.7377 26.0854C27.7394 26.0786 27.7413 26.0719 27.7433 26.0652C27.7416 26.0709 27.74 26.0766 27.7385 26.0824ZM27.7487 26.0484C27.7479 26.0506 27.7472 26.053 27.7465 26.0553C27.7475 26.0518 27.7486 26.0484 27.7498 26.045C27.7494 26.0461 27.749 26.0473 27.7487 26.0484ZM27.7582 26.0224C27.7566 26.0264 27.755 26.0305 27.7535 26.0347C27.755 26.0305 27.7566 26.0265 27.7582 26.0224ZM27.859 25.8625C27.8588 25.8627 27.8585 25.8631 27.8581 25.8635L27.8592 25.8623L27.8593 25.8622C27.8592 25.8622 27.8591 25.8624 27.859 25.8625ZM20.1976 17.4279C20.4237 17.3075 20.6968 17.3987 20.8196 17.6308L20.831 17.6537L21.7334 19.5825C21.8498 19.8315 21.7551 20.1342 21.5217 20.2584C21.2884 20.3827 21.0048 20.2816 20.8883 20.0326L19.9859 18.1038L19.9756 18.0803C19.8755 17.8361 19.9715 17.5483 20.1976 17.4279ZM25.6953 17.5051H25.6953L25.6965 17.5045C25.6965 17.5043 25.6965 17.5041 25.6965 17.5039L25.6953 17.5051ZM25.3317 17.8238C25.3364 17.8299 25.3408 17.8352 25.3447 17.84C25.3403 17.8347 25.3359 17.8293 25.3317 17.8238ZM25.324 17.8133C25.326 17.8161 25.3279 17.8188 25.3298 17.8214C25.3278 17.8187 25.3259 17.816 25.324 17.8133ZM25.6965 17.5045L25.6953 17.5051L25.6965 17.5039V17.5045ZM25.4095 17.1047C25.4066 17.1071 25.4036 17.1095 25.4006 17.1121C25.4036 17.1096 25.4065 17.1071 25.4095 17.1047ZM25.4315 17.0878C25.4285 17.0899 25.4255 17.0921 25.4225 17.0944C25.4255 17.0922 25.4285 17.09 25.4315 17.0878ZM25.4644 17.0659C25.4579 17.0698 25.4511 17.0741 25.4442 17.0787C25.4508 17.0743 25.4576 17.07 25.4644 17.0659ZM25.489 17.0521C25.4838 17.0548 25.4784 17.0578 25.4728 17.061C25.4782 17.0579 25.4836 17.0549 25.489 17.0521ZM25.5118 17.0409C25.5068 17.0431 25.5015 17.0457 25.4959 17.0485C25.5026 17.0451 25.5095 17.042 25.5164 17.039C25.5149 17.0396 25.5133 17.0402 25.5118 17.0409ZM25.5447 17.0276C25.5398 17.0293 25.5348 17.0314 25.5297 17.0335C25.5347 17.0315 25.5396 17.0294 25.5447 17.0276ZM25.5889 17.014C25.5875 17.0143 25.5861 17.0148 25.5846 17.0152C25.586 17.0148 25.5875 17.0144 25.5889 17.014ZM25.6051 17.0102C25.6043 17.0104 25.6036 17.0107 25.6028 17.0108C25.6037 17.0106 25.6047 17.0104 25.6057 17.0102C25.6055 17.0102 25.6053 17.0102 25.6051 17.0102ZM25.6378 17.0047C25.6365 17.0048 25.6351 17.005 25.6337 17.0052C25.6351 17.005 25.6364 17.0049 25.6378 17.0047ZM25.6614 17.0021C25.6609 17.0021 25.6605 17.0022 25.6601 17.0022C25.6608 17.0022 25.6615 17.0022 25.6622 17.0021C25.662 17.0021 25.6616 17.0021 25.6614 17.0021ZM25.6938 17.0007C25.6925 17.0007 25.6911 17.0007 25.6898 17.0007C25.6871 17.0008 25.6843 17.0008 25.6813 17.0009C25.6801 17.001 25.6789 17.0011 25.6776 17.0012C25.6841 17.0009 25.6905 17.0007 25.697 17.0007V17.0007H25.6938Z" fill="black"/>
<path d="M28.7676 25.4355C29.7513 25.2 30.8017 25.661 31.2734 26.603L31.2737 26.6036L31.7654 27.5883L31.7904 27.6399C32.2998 28.7263 31.8505 30.0267 30.7697 30.5652L30.7698 30.5653L27.7219 32.0849L27.6989 32.0956C27.4599 32.2001 27.1782 32.1 27.0603 31.8642C26.9387 31.6208 27.0376 31.3251 27.2813 31.2036L30.3292 29.6839L30.3294 29.6839C30.9398 29.3798 31.1879 28.6381 30.883 28.0286L30.8828 28.0282L30.3912 27.0436L30.3787 27.0193C30.111 26.5124 29.537 26.2649 28.9989 26.3931C28.908 26.4155 28.8186 26.4477 28.7326 26.4904L22.5769 29.5592L22.5767 29.5592L22.3133 29.6904L22.3134 29.6905C21.7026 29.9952 21.4545 30.7365 21.7596 31.3467L21.7596 31.3468L22.2515 32.3311L22.266 32.3595C22.5796 32.9489 23.3087 33.1841 23.9098 32.8847L25.3019 32.1906C25.5456 32.069 25.8418 32.1679 25.9635 32.4112C26.0852 32.6546 25.9863 32.9504 25.7426 33.0719L24.3505 33.766L24.3503 33.7661C23.2526 34.313 21.9174 33.8683 21.3689 32.7711L20.877 31.7867L20.852 31.7351C20.3427 30.6481 20.792 29.3484 21.8725 28.8093L21.8728 28.8091L28.292 25.6091L28.2927 25.6088C28.4467 25.5323 28.6052 25.4754 28.7647 25.4362C28.7656 25.4359 28.7666 25.4357 28.7676 25.4355ZM25.9444 8.66819C26.2044 8.62286 26.4523 8.78967 26.5101 9.04374L26.5151 9.06862L26.528 9.14616C26.589 9.53436 26.5994 9.92885 26.5594 10.3199L26.5593 10.3202C26.389 11.972 26.4155 13.6449 26.5735 15.312L26.7629 17.3025C26.7631 17.3043 26.7632 17.3063 26.7634 17.3082C26.7642 17.3178 26.7654 17.333 26.7665 17.3505C26.7677 17.3628 26.7683 17.3755 26.7685 17.3886C26.8228 18.4484 26.0178 19.3707 24.9394 19.4422L24.9394 19.4421C23.869 19.514 22.9659 18.7012 22.8557 17.6648L22.6194 16.2806L18.9497 20.7139L18.933 20.733C18.7568 20.9252 18.4587 20.9476 18.2553 20.7797C18.0454 20.6064 18.0159 20.2959 18.1894 20.0863L22.5447 14.8248L22.5564 14.8111C22.6799 14.6725 22.8715 14.6146 23.052 14.6627C23.2383 14.7124 23.3786 14.866 23.411 15.0558L23.8305 17.5132L23.8333 17.5313C23.8341 17.5373 23.8348 17.5434 23.8353 17.5494C23.887 18.0927 24.3552 18.4943 24.8735 18.4593H24.8741C25.4137 18.4236 25.8162 17.9596 25.783 17.4276C25.7828 17.425 25.7828 17.4223 25.7827 17.4197C25.7826 17.4187 25.7825 17.4178 25.7825 17.4169C25.7823 17.413 25.7819 17.4074 25.7804 17.3899L25.5916 15.4052V15.405C25.4287 13.6876 25.3999 11.9484 25.5781 10.2197L25.5838 10.1582C25.6083 9.8713 25.5982 9.58278 25.5535 9.29886L25.5435 9.23812L25.5397 9.21305C25.5079 8.95442 25.6845 8.71353 25.9444 8.66819ZM18.2257 17.586C18.0521 17.7957 17.7413 17.8251 17.5313 17.6518C17.3214 17.4785 17.2919 17.168 17.4654 16.9584L18.2257 17.586ZM25.8992 17.7149C25.9023 17.7186 25.9052 17.722 25.908 17.7251C25.905 17.7217 25.9021 17.7183 25.8992 17.7149ZM25.8866 17.6994C25.8891 17.7026 25.8914 17.7057 25.8938 17.7086C25.8913 17.7056 25.889 17.7024 25.8866 17.6994ZM19.1857 14.8805C19.3593 14.6709 19.6702 14.6415 19.8801 14.8148C20.09 14.9881 20.1195 15.2986 19.9459 15.5082L18.2257 17.586L17.4654 16.9584L19.1857 14.8805ZM26.0533 16.9572C26.0501 16.9588 26.0469 16.9605 26.0435 16.9623C26.0468 16.9606 26.05 16.9588 26.0533 16.9572ZM26.0776 16.9458C26.0724 16.9481 26.0669 16.9506 26.0612 16.9533C26.0666 16.9507 26.0721 16.9482 26.0776 16.9458ZM26.0822 16.9438C26.0819 16.9439 26.0815 16.9441 26.0812 16.9442C26.0826 16.9436 26.084 16.9431 26.0855 16.9425C26.0844 16.9429 26.0833 16.9433 26.0822 16.9438ZM26.1428 16.9227C26.1399 16.9235 26.1369 16.9243 26.1339 16.9252C26.1368 16.9243 26.1398 16.9235 26.1428 16.9227ZM26.1705 16.9157C26.1661 16.9167 26.1613 16.9178 26.1563 16.9191C26.161 16.9179 26.1657 16.9168 26.1705 16.9157ZM26.1999 16.9102C26.1935 16.9112 26.1868 16.9124 26.1797 16.9138C26.1789 16.9139 26.1781 16.9141 26.1773 16.9143C26.1848 16.9128 26.1923 16.9114 26.1999 16.9102ZM26.219 16.9077C26.2135 16.9083 26.2076 16.909 26.2014 16.91C26.2072 16.9091 26.2131 16.9084 26.219 16.9077ZM26.2385 16.9058C26.2363 16.906 26.2339 16.9063 26.2315 16.9065C26.2369 16.906 26.2423 16.9056 26.2477 16.9053C26.2448 16.9055 26.2417 16.9056 26.2385 16.9058ZM26.2723 16.9045C26.271 16.9045 26.2696 16.9045 26.2682 16.9045C26.2653 16.9046 26.2624 16.9046 26.2593 16.9047C26.2573 16.9048 26.2552 16.9049 26.253 16.905C26.2606 16.9047 26.2681 16.9044 26.2757 16.9045H26.2723ZM15.2303 9.25974L12.1659 12.9602C11.8905 13.2929 11.9372 13.7861 12.2702 14.0613L12.2926 14.0792C12.3987 14.1605 12.518 14.2103 12.6406 14.2306L12.6669 14.2345L12.692 14.2385C12.9486 14.2855 13.126 14.5258 13.0916 14.7871C13.0561 15.0568 12.8084 15.2466 12.5383 15.2112C12.2186 15.1692 11.9073 15.0395 11.6422 14.821L11.6419 14.8208C10.8889 14.1989 10.7831 13.0846 11.4058 12.3325L14.4702 8.63195L15.2303 9.25974ZM17.6906 12.7435C17.8668 12.5514 18.1649 12.529 18.3683 12.6969C18.5782 12.8702 18.6077 13.1807 18.4342 13.3904L17.1321 14.9631C16.9585 15.1728 16.6477 15.2022 16.4378 15.0289C16.2278 14.8556 16.1983 14.5451 16.3719 14.3355L17.6739 12.7627L17.6906 12.7435ZM15.9046 10.9001C16.0809 10.708 16.379 10.6857 16.5823 10.8537C16.7922 11.027 16.8217 11.3374 16.6481 11.547L14.5431 14.0885C14.3695 14.2981 14.0586 14.3275 13.8487 14.1541C13.6388 13.9807 13.6094 13.6703 13.783 13.4607L15.888 10.9193L15.9046 10.9001ZM14.4702 8.63195C14.6438 8.42235 14.9546 8.39296 15.1645 8.56628C15.3744 8.73963 15.4039 9.05011 15.2303 9.25974L14.4702 8.63195ZM16.6005 7.60406C16.4269 7.81368 16.1161 7.84315 15.9062 7.66985C15.6963 7.49653 15.6667 7.18605 15.8403 6.9764L16.6005 7.60406ZM20.4799 4.00064C20.7405 4.01377 20.9478 4.22889 20.9478 4.4924C20.9479 4.76442 20.7271 4.985 20.4547 4.98506L20.4064 4.98538C19.3914 4.9992 18.3906 5.44085 17.6948 6.28218L17.6947 6.28237L16.6005 7.60406L15.8403 6.9764L16.9344 5.65472C17.8367 4.56384 19.1419 4.00029 20.4545 4L20.4799 4.00064Z" fill="black"/>
<path d="M17.4222 16.3091C17.8905 16.2985 18.3439 16.4734 18.6827 16.7953C19.3888 17.466 19.4144 18.5788 18.74 19.2808L18.5541 19.4745C18.8029 19.5517 19.0319 19.6831 19.2241 19.8597L19.246 19.8801L19.2462 19.8803C19.9514 20.551 19.977 21.663 19.3034 22.3648L19.3034 22.365L15.9866 25.8186L15.9866 25.8187L15.6945 26.1231L15.6945 26.123L13.3199 28.5972L13.3198 28.5971C12.3434 29.6152 11.003 30.0813 9.69593 29.9884C9.42469 29.9691 9.22052 29.7348 9.23988 29.4649C9.25865 29.2035 9.48035 29.0047 9.7408 29.01L9.76613 29.0112L9.81428 29.0143C10.8262 29.0727 11.8547 28.7058 12.6075 27.9207L12.6076 27.9206L15.2745 25.1421L15.2745 25.142L18.5913 21.6882C18.8891 21.3777 18.8781 20.8858 18.5659 20.5886L18.5464 20.5707C18.4476 20.483 18.3277 20.4218 18.1982 20.3931C18.1972 20.3929 18.1962 20.3926 18.1952 20.3924C18.1339 20.3784 18.0712 20.372 18.0085 20.3733L18.0085 20.3733C17.8072 20.3782 17.6098 20.4586 17.4607 20.6136L17.2565 20.8266L17.2563 20.8268L14.7385 23.4485C14.5507 23.6441 14.2389 23.6512 14.0423 23.4643C13.8457 23.2774 13.8386 22.9674 14.0265 22.7718L16.7354 19.9506C16.7395 19.946 16.7435 19.9415 16.7478 19.9371L18.028 18.604L18.0281 18.6039C18.3265 18.2935 18.3154 17.801 18.0026 17.5038L18.0026 17.5038C17.8528 17.3614 17.6523 17.2841 17.4452 17.2886C17.2437 17.2934 17.046 17.3738 16.8975 17.5288L16.8972 17.529L13.5542 21.0116L12.842 20.3349L16.1851 16.8524C16.5223 16.5007 16.9718 16.3199 17.4214 16.3091H17.4222ZM13.7612 12.8318C13.9935 12.8261 14.2245 12.8662 14.4411 12.9498C14.6577 13.0333 14.8556 13.1585 15.0233 13.3184C15.625 13.8905 15.7315 14.7828 15.332 15.4689C15.2618 15.5899 15.1772 15.702 15.0801 15.803L15.0802 15.8031L12.2446 18.7566L12.2267 18.7744C12.0375 18.9525 11.739 18.9536 11.5485 18.7725C11.3518 18.5857 11.3446 18.2756 11.5325 18.0799L14.368 15.1264L14.3681 15.1263C14.4111 15.0816 14.4484 15.032 14.4795 14.9785L14.4799 14.9778C14.6568 14.674 14.6084 14.279 14.3426 14.0264L14.3421 14.0259C14.2681 13.9554 14.1808 13.9001 14.0852 13.8633C14.0016 13.831 13.9131 13.8134 13.8236 13.8112H13.7839C13.6814 13.8134 13.5804 13.8357 13.4866 13.8769C13.3928 13.9181 13.3081 13.9773 13.2374 14.0512L13.237 14.0517L8.38922 19.101C8.22297 19.2742 7.95974 19.2995 7.76508 19.1735C7.54425 19.1372 7.37168 18.9544 7.35481 18.7268L7.3536 18.7016L7.29846 16.3065C7.28594 15.7638 6.84834 15.3321 6.32977 15.3301H6.32919C5.77825 15.3274 5.33774 15.7768 5.3503 16.3212L5.39621 18.3094C5.43579 20.0245 5.33977 21.7521 5.03903 23.4542V23.4543C4.98555 23.7564 4.97155 24.064 4.99735 24.3694L5.00306 24.4305L5.00498 24.4556C5.01813 24.7144 4.82496 24.9408 4.56286 24.9673C4.30077 24.9937 4.06587 24.8106 4.02648 24.5544L4.02328 24.5293L4.01603 24.4514C3.98312 24.0619 4.00092 23.6696 4.06912 23.2844C4.35646 21.6581 4.45009 19.9964 4.41168 18.3318L4.36577 16.3437C4.34053 15.25 5.22597 14.3452 6.33348 14.3504H6.33406C7.4131 14.3548 8.25887 15.2382 8.28299 16.284L8.3169 17.7578L12.5248 13.3749C12.6849 13.2078 12.8767 13.0738 13.0889 12.9806C13.301 12.8875 13.5295 12.8369 13.7612 12.8318ZM13.5542 21.0116C13.3664 21.2072 13.0547 21.2144 12.8581 21.0275C12.6614 20.8407 12.6542 20.5306 12.842 20.3349L13.5542 21.0116ZM20.55 0.800992C21.3309 -0.138711 22.7296 -0.270592 23.6742 0.506249L26.2956 2.66226C26.5052 2.83464 26.5346 3.14338 26.3613 3.35188C26.188 3.56039 25.8777 3.58969 25.6681 3.41733L23.0467 1.26132C22.5213 0.82921 21.7433 0.902587 21.309 1.42524L20.6081 2.26871L20.608 2.26865C20.1737 2.79135 20.2475 3.56535 20.7729 3.99744L26.2935 8.53811C26.8189 8.97022 27.597 8.89679 28.0313 8.37413L28.7322 7.53072C29.1665 7.00802 29.0928 6.23402 28.5674 5.80193L27.3702 4.81737L27.3511 4.80079C27.159 4.62576 27.1366 4.32968 27.3044 4.12768C27.4723 3.92568 27.7688 3.89187 27.9777 4.04668L27.9977 4.06224L29.1948 5.04686C30.1394 5.82374 30.272 7.21528 29.4911 8.15497L28.7903 8.99837C28.0094 9.9381 26.6106 10.07 25.6661 9.29318L20.1454 4.75257C19.2008 3.97569 19.0682 2.58409 19.8491 1.6444L20.55 0.800992Z" fill="black"/>
<path d="M1.48633 24.3869C2.36569 23.5474 3.77902 23.5163 4.69764 24.3161L4.74171 24.3555L10.1861 29.3432C11.1176 30.1966 11.1514 31.6126 10.2618 32.5061L9.46329 33.308C8.58751 34.1876 7.14322 34.2328 6.20979 33.42L6.16572 33.3807L3.58057 31.0124C3.37389 30.823 3.36638 30.5088 3.56379 30.3106C3.76121 30.1123 4.08878 30.1051 4.29547 30.2945L6.88063 32.6627C7.39876 33.1373 8.21993 33.1193 8.71476 32.6223L9.51329 31.8204C10.0004 31.3312 9.98974 30.5603 9.49509 30.0836L9.47117 30.0611L4.0268 25.0735C3.50867 24.5988 2.68749 24.6169 2.19268 25.1139L1.39421 25.9158C0.899364 26.4128 0.918228 27.2004 1.43633 27.675L2.61687 28.7566L2.63567 28.7747C2.82385 28.9654 2.82495 29.2663 2.63372 29.4584C2.44247 29.6505 2.12903 29.6632 1.92171 29.4917L1.90197 29.4746L0.721424 28.3929C-0.210097 27.5396 -0.243956 26.1235 0.645681 25.2301L1.44421 24.4282L1.48633 24.3869ZM17.0989 14.0005C17.3428 13.9948 17.5856 14.0354 17.8132 14.1198C18.0265 14.199 18.2226 14.3152 18.3917 14.4626L18.4252 14.4925L18.4595 14.5247C19.1682 15.2075 19.1831 16.3105 18.4856 17.0112L18.4855 17.0113L17.6243 17.8757C17.4268 18.0739 17.0992 18.081 16.8926 17.8916C16.686 17.7022 16.6785 17.388 16.8759 17.1898L17.7372 16.3254C18.051 16.0099 18.039 15.5115 17.7104 15.2106V15.2105C17.6324 15.1391 17.5404 15.0831 17.4398 15.0458C17.3391 15.0085 17.2319 14.9906 17.124 14.9931L17.1239 14.993C17.1054 14.9935 17.092 14.9942 17.0808 14.9953C17.0777 14.9956 17.0745 14.9959 17.0714 14.9962C16.8803 15.0111 16.6927 15.0913 16.5486 15.236L16.5487 15.2361L15.9055 15.8821C15.7081 16.0803 15.3805 16.0875 15.1738 15.8982C14.9671 15.7089 14.9596 15.3947 15.157 15.1964L15.8001 14.5504C16.1252 14.2239 16.5518 14.0407 16.9873 14.0067V14.0067C17.0275 14.0031 17.0647 14.0013 17.0985 14.0005H17.0989Z" fill="black"/>
</svg>
